<svg xmlns="http://www.w3.org/2000/svg" width="137.621" height="42.95" viewBox="0 0 137.621 42.95">
  <path id="airbnb" d="M402.306,450.79a2.795,2.795,0,1,1-2.8-2.794A2.789,2.789,0,0,1,402.306,450.79Zm-11.522,5.632v.688a5.369,5.369,0,0,0-4.17-1.721,8.514,8.514,0,0,0,0,17.025,5.221,5.221,0,0,0,4.17-1.763v.73a.588.588,0,0,0,.6.6h3.482V455.818h-3.482A.618.618,0,0,0,390.784,456.422Zm0,10.361a4.271,4.271,0,0,1-3.482,1.763c-2.751,0-4.858-1.72-4.858-4.644s2.107-4.643,4.858-4.643a4.389,4.389,0,0,1,3.482,1.763Zm6.664-10.963h4.127v16.166h-4.127V455.82Zm61.652-.43a5.372,5.372,0,0,0-4.171,1.72v-9.071H450.8v23.947h3.483a.614.614,0,0,0,.6-.6v-.731a5.324,5.324,0,0,0,4.17,1.763,8.515,8.515,0,0,0,.044-17.026Zm-.688,13.113a4.209,4.209,0,0,1-3.483-1.763v-5.761a4.666,4.666,0,0,1,3.483-1.763c2.751,0,4.858,1.72,4.858,4.643S461.164,468.5,458.412,468.5Zm-9.759-6.1v9.63h-4.128v-9.158c0-2.665-.86-3.741-3.18-3.741a4.621,4.621,0,0,0-3.355,1.591v11.264h-4.126V455.82h3.266a.615.615,0,0,1,.6.6v.688a5.922,5.922,0,0,1,4.385-1.721,6.7,6.7,0,0,1,4.515,1.548C448.093,458.142,448.653,459.69,448.653,462.4Zm-24.808-7.009a5.371,5.371,0,0,0-4.17,1.72v-9.071h-4.127v23.947h3.482a.615.615,0,0,0,.6-.6v-.731a5.324,5.324,0,0,0,4.17,1.763,8.515,8.515,0,0,0,.043-17.026Zm-.688,13.113a4.209,4.209,0,0,1-3.482-1.763v-5.761a4.666,4.666,0,0,1,3.482-1.763c2.752,0,4.859,1.72,4.859,4.643S425.909,468.5,423.157,468.5Zm-11.178-13.113a6.565,6.565,0,0,1,1.892.216v3.826s-3.439-1.161-5.589,1.29v11.307h-4.128V455.82h3.483a.615.615,0,0,1,.6.6v.688a5.65,5.65,0,0,1,3.741-1.721Zm-42.863,15.134c-.215-.516-.43-1.075-.645-1.548-.344-.774-.689-1.5-.989-2.193l-.043-.043c-2.967-6.449-6.148-12.984-9.5-19.432l-.129-.259q-.529-1-1.031-2.021a12.366,12.366,0,0,0-1.548-2.365,6.944,6.944,0,0,0-5.46-2.666,7.215,7.215,0,0,0-5.5,2.58,14.749,14.749,0,0,0-1.548,2.365q-.5,1.017-1.031,2.021l-.129.258c-3.311,6.449-6.535,12.983-9.5,19.432l-.043.086c-.3.689-.645,1.419-.989,2.193q-.322.71-.644,1.548a9.647,9.647,0,0,0-.516,4.644,9.138,9.138,0,0,0,5.589,7.137,8.825,8.825,0,0,0,3.482.688,9.715,9.715,0,0,0,1.118-.086,11.357,11.357,0,0,0,4.3-1.461,21.77,21.77,0,0,0,5.331-4.471,22.589,22.589,0,0,0,5.331,4.471,11.36,11.36,0,0,0,4.3,1.461,9.606,9.606,0,0,0,1.118.086,8.671,8.671,0,0,0,3.482-.688,9.121,9.121,0,0,0,5.589-7.137A8.145,8.145,0,0,0,369.116,470.523Zm-19.389,2.236a21.2,21.2,0,0,1-4.342-8,6.936,6.936,0,0,1-.129-2.623,4.165,4.165,0,0,1,.688-1.806,4.566,4.566,0,0,1,3.783-1.891,4.4,4.4,0,0,1,3.784,1.891,4.184,4.184,0,0,1,.688,1.806,6.918,6.918,0,0,1-.129,2.623A21.892,21.892,0,0,1,349.727,472.759Zm17.153,2.021a6.389,6.389,0,0,1-3.912,5.031,6.51,6.51,0,0,1-3.267.43,8.467,8.467,0,0,1-3.267-1.118,20.092,20.092,0,0,1-4.9-4.171c2.837-3.482,4.557-6.664,5.2-9.5a10.757,10.757,0,0,0,.215-3.655,6.972,6.972,0,0,0-1.161-2.924,7.245,7.245,0,0,0-6.062-3.052,7.356,7.356,0,0,0-6.062,3.052A6.976,6.976,0,0,0,342.5,461.8a8.93,8.93,0,0,0,.215,3.655c.645,2.837,2.407,6.062,5.2,9.544a19.313,19.313,0,0,1-4.9,4.171,8.441,8.441,0,0,1-3.267,1.118,6.878,6.878,0,0,1-3.268-.43,6.389,6.389,0,0,1-3.912-5.031,7.111,7.111,0,0,1,.387-3.353c.128-.43.344-.86.559-1.376.3-.688.644-1.42.989-2.15l.043-.086c2.966-6.406,6.147-12.941,9.458-19.3l.129-.259c.344-.644.689-1.332,1.032-1.977a9.438,9.438,0,0,1,1.2-1.892,4.514,4.514,0,0,1,6.879,0,9.514,9.514,0,0,1,1.2,1.892c.344.645.688,1.333,1.032,1.977l.129.259q4.89,9.583,9.415,19.347v.043c.344.689.645,1.462.989,2.151.215.515.43.944.559,1.375a7.266,7.266,0,0,1,.3,3.31Z" transform="translate(-329.776 -439.998)" fill="#ff5a5f"/>
</svg>
