<svg xmlns="http://www.w3.org/2000/svg" width="69.773" height="68.237" viewBox="0 0 69.773 68.237">
  <g id="Group_1300" data-name="Group 1300" transform="translate(-55.684)">
    <path id="Union_1" data-name="Union 1" d="M34.849,68.237H0V13.1A13.109,13.109,0,0,1,13.1,0H56.669a13.109,13.109,0,0,1,13.1,13.1V55.138a13.109,13.109,0,0,1-13.1,13.1Z" transform="translate(55.684)" fill="#0c3b7c"/>
    <g id="Group_1249" data-name="Group 1249" transform="translate(74.039 17.418)">
      <path id="Path_908" data-name="Path 908" d="M781.871,709.818l-5.62-.006v-6.72c0-1.436.557-2.183,1.785-2.354h3.834a4.54,4.54,0,0,1,0,9.079Zm-5.62-18.124v-1.769c0-1.547.655-2.284,2.091-2.379h2.877a3.626,3.626,0,0,1,3.943,3.946c0,1.881-1.013,4.078-3.854,4.078h-5.057Zm12.8,6.706-1.016-.571.887-.759a8.111,8.111,0,0,0,2.762-6.325c0-5.273-4.089-8.673-10.417-8.673h-7.221v0h-.823a3.525,3.525,0,0,0-3.4,3.482v29.918h11.584c7.033,0,11.573-3.829,11.573-9.759a8.146,8.146,0,0,0-3.932-7.31" transform="translate(-769.823 -682.069)" fill="#fff"/>
      <path id="Path_909" data-name="Path 909" d="M1794.688,1670.307a4.122,4.122,0,1,1,4.115,4.134,4.124,4.124,0,0,1-4.115-4.134" transform="translate(-1768.514 -1641.04)" fill="#00bafc"/>
    </g>
  </g>
</svg>
