<svg xmlns="http://www.w3.org/2000/svg" width="122.133" height="39.866" viewBox="0 0 122.133 39.866">
  <g id="google-2015" transform="translate(0.003)">
    <path id="Path_910" data-name="Path 910" d="M15.039,0h1.086A14.82,14.82,0,0,1,26.268,4.283c-.984,1-1.988,1.967-2.951,2.971a11.084,11.084,0,0,0-18.607,6.68,11.407,11.407,0,0,0,2.48,8.812,10.968,10.968,0,0,0,7.992,3.934,10.639,10.639,0,0,0,7.951-2.725A8.679,8.679,0,0,0,25.777,18.3c-3.4,0-6.8.02-10.2,0V14.078H29.9c.738,4.529-.328,9.631-3.771,12.869a14.005,14.005,0,0,1-8.709,3.914,16,16,0,0,1-9.16-1.8A15.771,15.771,0,0,1,.94,20.717a15.109,15.109,0,0,1-.1-10.225,15.6,15.6,0,0,1,5.635-7.48A16.088,16.088,0,0,1,15.039,0Z" transform="translate(0)" fill="#3780ff"/>
    <path id="Path_911" data-name="Path 911" d="M474.4,5.2h4.385V34.463c-1.455,0-2.93.02-4.385-.02.02-9.734,0-19.488,0-29.242Z" transform="translate(-377.188 -4.134)" fill="#38b137"/>
    <path id="Path_912" data-name="Path 912" d="M162.32,53.995a10.3,10.3,0,0,1,7.869,1.68,9.625,9.625,0,0,1,3.873,6.148,9.909,9.909,0,0,1-10.41,11.885,9.973,9.973,0,0,1-7.459-4,10.244,10.244,0,0,1-1.352-9.3,9.725,9.725,0,0,1,7.48-6.414m.615,3.893a5.509,5.509,0,0,0-2.869,1.824,6.5,6.5,0,0,0,.328,8.463,5.456,5.456,0,0,0,4.877,1.516,5.519,5.519,0,0,0,3.811-2.807,6.481,6.481,0,0,0-1.107-7.7,5.529,5.529,0,0,0-5.041-1.291Z" transform="translate(-122.67 -42.786)" fill="#fa3913"/>
    <path id="Path_913" data-name="Path 913" d="M268.345,53.989A9.963,9.963,0,0,1,278.1,70.034a10.136,10.136,0,0,1-15.881-.328,10.342,10.342,0,0,1-1.291-9.508,9.733,9.733,0,0,1,7.418-6.209m.615,3.893a5.6,5.6,0,0,0-2.869,1.8,6.509,6.509,0,0,0,.225,8.381,5.483,5.483,0,0,0,5,1.619,5.621,5.621,0,0,0,3.812-2.807,6.516,6.516,0,0,0-1.148-7.725,5.493,5.493,0,0,0-5.02-1.271Z" transform="translate(-206.973 -42.78)" fill="#fcbd06"/>
    <path id="Path_914" data-name="Path 914" d="M370.764,55.175a8.378,8.378,0,0,1,8.033-.615,7.655,7.655,0,0,1,2.09,1.537c.02-.553,0-1.127.02-1.7,1.373.02,2.746,0,4.139.02V72.491a10.8,10.8,0,0,1-2.685,7.6,9.768,9.768,0,0,1-8.422,2.418,9.529,9.529,0,0,1-7.172-5.717c1.23-.594,2.521-1.066,3.791-1.619a5.636,5.636,0,0,0,4,3.443,5.311,5.311,0,0,0,5.123-1.639c1.27-1.557,1.27-3.689,1.209-5.594a7.274,7.274,0,0,1-3.34,2.049,9.006,9.006,0,0,1-8.176-2.111,10.088,10.088,0,0,1,1.393-16.148m4.242,2.623a5.391,5.391,0,0,0-3.217,1.865,6.538,6.538,0,0,0,.021,8.217,5.361,5.361,0,0,0,4.611,1.885,5.207,5.207,0,0,0,3.914-2.6,6.917,6.917,0,0,0-.7-7.746A5.043,5.043,0,0,0,375.006,57.8Z" transform="translate(-290.971 -42.777)" fill="#3780ff"/>
    <path id="Path_915" data-name="Path 915" d="M509.445,56.17a9.249,9.249,0,0,1,9.406-1.865c2.992,1.127,4.9,3.975,5.861,6.906-4.447,1.844-8.873,3.668-13.32,5.512a5.285,5.285,0,0,0,2.828,2.664,5.74,5.74,0,0,0,5.41-.779,8.72,8.72,0,0,0,1.516-1.619c1.127.758,2.254,1.5,3.381,2.254a10.033,10.033,0,0,1-15.84,1,10.5,10.5,0,0,1,.758-14.078m2.193,3.791a5.85,5.85,0,0,0-.963,3.443q4.457-1.844,8.914-3.709a3.686,3.686,0,0,0-2.889-2.029A5.236,5.236,0,0,0,511.638,59.961Z" transform="translate(-402.582 -42.728)" fill="#fa3913"/>
  </g>
</svg>
