<svg id="Group_1315" data-name="Group 1315" xmlns="http://www.w3.org/2000/svg" xmlns:xlink="http://www.w3.org/1999/xlink" width="33.307" height="36" viewBox="0 0 33.307 36">
  <defs>
    <clipPath id="clip-path">
      <rect id="Rectangle_530" data-name="Rectangle 530" width="33.307" height="36" fill="none" stroke="#4b4b49" stroke-width="1"/>
    </clipPath>
  </defs>
  <g id="Group_1312" data-name="Group 1312" clip-path="url(#clip-path)">
    <path id="Path_1051" data-name="Path 1051" d="M31.874,34.336H1.433V6.861L16.654,1.507l15.22,5.353Z" transform="translate(0 0.118)" fill="none" stroke="#4b4b49" stroke-width="2.866"/>
    <path id="Path_1052" data-name="Path 1052" d="M9.852,32.685V28.361a7.1,7.1,0,0,1,6.8-7.335,7.1,7.1,0,0,1,6.8,7.335v4.325" transform="translate(0 1.65)" fill="none" stroke="#4b4b49" stroke-width="2.866"/>
    <path id="Path_1053" data-name="Path 1053" d="M16.653,12.281A4.554,4.554,0,0,1,21.026,17a4.554,4.554,0,0,1-4.373,4.715A4.554,4.554,0,0,1,12.28,17,4.554,4.554,0,0,1,16.653,12.281Z" transform="translate(0 0.963)" fill="none" stroke="#4b4b49" stroke-width="2.866"/>
  </g>
</svg>
