<svg xmlns="http://www.w3.org/2000/svg" width="132.479" height="231.524" viewBox="0 0 132.479 231.524">
  <path id="Path_643" data-name="Path 643" d="M3788.358,1683.959c3.934-.086,5.164.254,10.759,4.648,0,0,.515-9.8.522-9.807s-10.724-2.787-14.048-4.394a44.98,44.98,0,0,1-7.884-5.8c-.616-.56-2.055-2.381-1.743-2.953a5.939,5.939,0,0,1,3.2-2.038c5.956.058,7.245,1.3,12.05,4.076,2.787,1.613,8.643,7.814,8.643,7.814s.444-8.809.492-11.887a1.573,1.573,0,0,0-1.154-1.34,66.052,66.052,0,0,1-24.848-7.759,30.976,30.976,0,0,1-7.5-6.12c-1.592-1.67-.728-3.765,1.561-4.081a11.445,11.445,0,0,1,5.538.369c6.3,2.475,12.509,5.205,18.694,7.979,2.753,1.234,5.355,4.141,8.282,5.688.221-2.819.524-6.577.543-8.994a2.43,2.43,0,0,0-1.339-1.786c-8.337-2.837-16.816-5.263-25.032-8.427-6.292-2.423-15.359-6.354-20.911-10.178-1.629-1.121-3.492-2.523-2.809-4.838.695-2.358,3.113-2.22,4.829-1.864a77.033,77.033,0,0,1,13.838,4.69c8.057,3.822,15.889,8.158,23.8,12.313,2.593,1.362,5.146,2.806,8.014,4.375.163-2.866.238-5.134.432-7.392.426-4.993.45-4.989-4.358-6.008-.23-.049-26.807-7.783-39.829-11.724-4.79-1.45-13.91-5.23-17.537-8.826-.848-.84-1.83-2.666-1.484-3.395a4.3,4.3,0,0,1,3.322-1.881,21.945,21.945,0,0,1,7.2.9c15.633,5.213,34.792,12.8,49.522,20.3a11.38,11.38,0,0,0,3.012,1.018c.492-2.547.311-4.309.185-8.024-.018-.524-.313-3.982-1.23-4.756-3.4-2.872-11.947-3.514-17.973-4.542-13.935-2.378-20.736-5.641-32.723-11.933a80.054,80.054,0,0,1-15.126-10.576,3.049,3.049,0,0,1,.66-5.307,8.276,8.276,0,0,1,3.142-.85c4.193-.34,8.059,1.785,11.816,3.487,8.846,4.005,11.612,5.31,20.448,9.343a164.674,164.674,0,0,1,19.427,9.935c2.8,1.728,10.967,6.825,11.067,5.094.164-2.844.089-7.047.137-10.364.026-1.745-.736-2.457-2.345-3.027-7.709-2.732-15.563-5.179-22.959-8.656a156.083,156.083,0,0,1-20.477-11.919,22.571,22.571,0,0,1-8.65-11.608,4.879,4.879,0,0,1,.5-4.013,4.1,4.1,0,0,1,3.765-.839,59.537,59.537,0,0,1,8.789,4.457c13.7,8.184,22.8,14.552,33.374,24.487,9.806,9.213,7.255,1.359,6.148-7.558-.554-4.466-.86-8.025-2.459-8.661-12.847-5.119-23.178-9.446-34.894-17.881a25.485,25.485,0,0,1-6.276-6.345,3.052,3.052,0,0,1,1.844-4.886,7.467,7.467,0,0,1,3.463.2c5.088,1.323,8.876,3.9,12.993,7.044,1.936,1.477,4.3,3.4,6.228,4.9,1.831,1.418,3.531,3.024,5.241,4.6.75.693,8.2,9.734,11.155,7.7,1.107-.764.431-3.12-.123-8.024-.235-2.081-.421-4.16-1.229-4.649-8.393-5.085-17.746-9.113-26.314-13.875a19.413,19.413,0,0,1-5.736-4.882,5.432,5.432,0,0,1-.5-4.663c.777-1.662,2.8-1.414,4.455-.769a22.688,22.688,0,0,1,2.409.939c8.266,4.375,15.266,10.546,22.169,16.85,1.547,1.413,3.849,3.465,4.005,3.351l-.012-16.171c-7.043-1.1-13.633-1.45-19.717-4.663a22.473,22.473,0,0,1-7.034-5.876c-.553-.827-1.327-2.977-.949-3.905.606-1.49,2.133-1.186,2.918-1.2a18.25,18.25,0,0,1,6.061,1.64,44.761,44.761,0,0,1,9.518,5.519c2.368,1.656,6.56,5.144,9.215,7.093-.012-4.1,0-7.552,0-11.041a2.685,2.685,0,0,0-1.9-2.661,52.6,52.6,0,0,1-17.339-8.23c-1.6-1.337-1.954-3.447-1.623-4.209.578-1.332,1.992-1.65,3.652-1.332,3.853.74,7.285,3.329,10.267,5.667a57.529,57.529,0,0,1,6.929,7.452V1516.4l.1-5.368c-.038-.965-.2-3.512-2.213-4.075-4.412-1.916-10.779-8.1-13.277-11.681-.7-.69-1.56-2.341-.741-3.349,1.156-1.422,4-.618,5.164.255,2.087,1.564,5.246,5.814,6.492,7.348,1.082,1.33,4.488,6.305,4.488,6.305s-.13-3.829-.249-4.346c-.665-2.9-1.562-5.044-1.861-7.988a24.405,24.405,0,0,1,3.078-15.7c.519-.975,1.7-2.234,2.66-2.307.925-.07,2.676,1.462,3.019,2.4.956,2.625,1.922,4.246,2.145,7.023.318,6.936-.246,7.9-2.7,13.841-.666,1.609-3.2,3.885-3.2,6.619l0,5.418c.423-.747,2.275-3.375,3.75-5.54a31.86,31.86,0,0,1,6.742-7.685,17.189,17.189,0,0,1,6.744-3.123c3.08-.733,4.779,1.591,3.368,4.468a11.614,11.614,0,0,1-4.8,5.194c-4.9,3.043-8.876,5.069-13.9,7.9-.694.391-1.869,1.013-1.9,1.58,0,0,.012,9,.012,12.131.358-.8,2.672-4.472,3.249-5.308a31.222,31.222,0,0,1,12.243-10.918,17.168,17.168,0,0,1,7.848-2.065c.917-.016,3.067.469,2.6,2.729-.668,3.2-3.2,9.744-24.177,15.969-1.511.448-1.767,1.3-1.759,1.7v13.426c.614-.453,14.872-15.551,22.859-20.659a17.347,17.347,0,0,1,7.035-2.435c2.807-.351,4.341,1.831,3.339,4.551a14.128,14.128,0,0,1-3.25,5.2c-7.269,6.964-15.1,9.718-24.459,12.878-3.663,1.237-5.524,2.595-5.524,4.29,0,1.079-.255,5.9.606,8.447,1.355,4.011,7.731-1.162,10.573-3.439,6.834-5.476,13.661-10.966,20.6-16.3a10.624,10.624,0,0,1,4.742-1.943c3.493-.527,5.327,2.015,4.13,5.464a5.937,5.937,0,0,1-1.359,2.515c-3.046,2.646-5.946,5.638-9.377,7.614-8.29,4.772-12.905,6.853-22.236,9.084-4,.956-5.829.566-5.9,2.611-.123,3.439.83,20.472,3.706,17.926,6.868-6.082,11.061-9.641,16.647-14.392,5.519-4.694,10.96-9.515,16.748-13.828a19.656,19.656,0,0,1,8.433-3.378c4.557-.727,6.49,2,5.29,6.674a15.96,15.96,0,0,1-7.692,9.8c-12.456,7.448-23.105,11.011-36.246,17.2-2.705,1.274-3.935,1.656-3.888,3.463.109,4.2.8,7.03,1.183,11.694,1.356-.965,2.925-1.971,3.934-2.675,11.538-8.032,22.3-14.5,33.91-22.415a48.813,48.813,0,0,1,9.371-5,5.084,5.084,0,0,1,6.853,2.577c1.148,2.3.8,4.406-2.008,6.538-3.782,2.873-7.481,6.053-11.607,8.367a182.511,182.511,0,0,1-36.215,15.222c-4.3,1.308-4.272,1.3-4.131,5.879.068,2.213.012,4.428.012,7.067,1.29-.632,1.926-.914,2.536-1.247,13.319-7.273,26.113-15.625,40.555-20.561,5.76-1.968,8.51-3.56,14.7-3.3,2.969.123,3.813,1.726,2.717,4.591a13.919,13.919,0,0,1-6.661,7.3,154.612,154.612,0,0,1-30.471,13.184c-6.892,2.169-18.951,1.753-21.9,6.085-2.009,2.951-1.067,7.48-1.067,11.358.823-.333,1.258-.472,1.661-.678,6.051-3.094,11.977-6.488,18.177-9.213,6.261-2.752,18.461-8.312,24.943-10.469,3.9-1.3,7.924-2.714,9.9-.126,1.845,2.42-2,6.1-3.565,7.387-2.785,2.294-8.177,6.027-12.337,7.345-9.991,4.068-25.412,8.088-35.724,8.42-3.3.106-3.264.232-3.37,3.679-.073,2.357-.26,4.71-.35,7.067-.019.5-.117,1.151.424,1.468.472.276,2.515-1.057,2.788-1.189,5.466-2.634,17.575-7.825,23.165-10.141a33.724,33.724,0,0,1,16.135-2.656c1.178.111,2.913,1.118,3.207,2.1.314,1.044-.625,2.632-1.3,3.808a5.181,5.181,0,0,1-2.142,1.867c-3.662,1.826-7.231,4.1-11.1,5.172-6.952,1.932-22.705,6.347-29.76,7.891-.68.149-1.743.664-1.835,1.047a67.828,67.828,0,0,0-.877,8.832,52.725,52.725,0,0,0,8.738-4.481c4.51-2.689,14.743-6.653,20.1-6.322,1.231.076,3.109.872,3.426,1.8a4.675,4.675,0,0,1-1.038,4.039,15.43,15.43,0,0,1-6,3.617c-5.832,1.567-14.318,4.49-21.121,5.423-.778.106-3.935.594-4.263,1.783-.832,3.019-.629,8-.861,11.687,1.664-1.141,3.7-3.1,5.743-4.642,2.622-1.984,8.071-5.9,11.53-5.306,2.886.5,4.1,3.251,2,5.306a9.346,9.346,0,0,1-4.294,2.775c-2.1.81-8.718,3.4-10.947,3.873-2.322.494-4.127.31-4.18,1.211-.1,1.671-.369,6.431-.615,9.679,0,0,3.991-2.884,5.385-3.154.9-.174,2.267-.487,2.848.3.617.843.057,2.481-.527,3.065-1.782,1.783-3.426,2.024-5.8,2.714-1.752.51-2.182.986-2.214,2.42-.053,2.444.218,7.4-.1,9.807-.124.924-.845,2.609-1.9,2.551-.9-.048-1.341-1.677-1.409-2.369a28.011,28.011,0,0,1,.09-3.143c.124-2.75.779-8.864.214-9.839-1.763-3.045-11.175-1.161-12.358-4.14C3785.875,1686.228,3785.7,1684.016,3788.358,1683.959Zm1.111-8.461-5.3.981" transform="translate(-3734 -1475.494)" fill="#4b4b4a"/>
</svg>
