<svg xmlns="http://www.w3.org/2000/svg" width="161" height="249.477" viewBox="0 0 161 249.477">
  <path id="Path_747" data-name="Path 747" d="M3815.14,4024.833c0-7.844,9.154-7.366,17.293-9.692,18.285-5.226,39.406-16.347,53.723-39.528.146-.236-22.539,7.235-65.346,38.367-.922.908-4.8,4.045-5.623,5.047l.047-8.665c.048-2.278,1.588-2.629,6.469-4.989a242.269,242.269,0,0,0,29.417-16.387c7.25-4.854,13.658-10.995,19.771-17.156,7.543-7.6,14.4-15.817,21.533-23.781.554-.619.977-1.342,1.866-2.583-36.576,9.33-59.89,32.745-79.008,61.41,0-2.473-.1-4.85-.095-7.281.007-3.944.047-7.905.047-11.835a4.139,4.139,0,0,1,1.938-3.261,317.587,317.587,0,0,0,38.746-28.847c4.48-3.863,9.156-7.557,13.313-11.713a183.231,183.231,0,0,0,13.8-15.816,67.67,67.67,0,0,0-22.151,7.3c-10.176,5.225-17.756,13.278-25.435,21.19a118.741,118.741,0,0,0-18.669,24.854,2.882,2.882,0,0,1-1.541,1.431c0-1.731-.1-3.807-.093-5.538.006-4.2.2-8.489.046-12.686-.056-1.542.609-2.133,1.945-2.832,19.141-10.022,33.472-22.866,47.289-38.706a76.992,76.992,0,0,0,7.183-10.631c-12.754,2.866-23.348,10.326-32.844,18.372-9.453,8.013-23.521,27.251-23.526,26.83-.048-5.316-.1-11.435,0-16.75.013-.7.874-1.561,1.56-1.965,11.5-6.767,22.292-13.561,31.769-22.752,5.86-5.683,11.687-11.4,15.835-18.469-3.49-.211-12.62,3.491-19.8,8.679-5.806,4.2-11.657,8.538-16.538,13.627-4.91,5.118-8.646,11.24-12.876,16.9,0-2.274.047-15.937.047-15.937a53.692,53.692,0,0,1,7.02-4.541c10.106-5.9,21.661-12.432,33.108-34.385-1.846.074-23.445,9.1-40.175,35.979v-12.506c0-5.207.678-4.74,5.363-7.4,11.027-6.263,19.5-15.218,26.963-25.029a4.2,4.2,0,0,0,.354-.7c-4.016.1-14.428,5.426-18.983,10.413-4.863,5.323-9.08,10.8-13.673,16.41,0-4.261,0-8.508-.019-13.078.024-.643,1.105-1.5,1.9-1.834,10.5-4.494,17.576-12.423,23.9-21.121a34.81,34.81,0,0,0,1.784-3.187c-13.678,2.931-21.382,11.414-27.556,21.465,0-9.278-.208-8.225,2.621-10.651,6.695-5.74,11.851-12.461,14.7-20.646.384-1.1.637-2.246,1.054-3.743-9.851,4.92-14.948,14-18.375,23.014v-3.517l-.022-5.606c.773-5.145,5.555-4.432,4.962-18.11-.293-6.785-1.928-16.939-7.35-22.278-4.332,4.623-4.55,15.066-4.537,19.832.048,15.759,3.112,18.227,4.43,22.042,0,.067-.035,5.7-.035,5.7-6.45-14.237-18.515-21.164-18.84-21.021.366,1.7,1.658,10.223,6.012,15.627,2.43,3.018,8.044,5.394,9.638,6.633,3.4,2.646,3.225,4.153,3.225,7.471v12.227c-1.734-3.883-3.857-7.587-5.877-11.332-2.943-5.454-6.581-10.5-12.342-13.705a14.832,14.832,0,0,0-9.834-2.152c3.249,5.9,5.879,11.622,9.381,16.812,4.308,6.385,9.281,8.8,17.114,12.454,1.665.637,1.551,3.571,1.559,4.121v19.831c-.407-.821-1.739-5.819-2.062-6.668-4.929-12.926-13.643-23.069-25.5-30.853a61.359,61.359,0,0,0-6.465-3.256c-.345.279,1.112,8.169,2.8,11.564a88.646,88.646,0,0,0,29.741,34.111c.62.427,1.48,1.183,1.489,1.869,0,7.235-.035,14.17,0,21.707-4.892-10.8-11.736-20.662-18.874-30.165-7.125-9.487-24.437-26.253-24.778-26.11a72.043,72.043,0,0,0,1.813,8.308c4.04,11.88,10.768,22.444,18.75,32.247,5.07,6.229,18.606,15.024,21.423,18.87,1.236,1.687,1.593,4.646,1.532,6.523-.138,4.252.074,15.139.074,15.139-8.222-19.92-13.521-25.327-22.547-35.342-8.957-9.94-30.2-26.6-30.5-26.415.129.687,9.755,22.265,16.2,31.479,7.151,10.226,10.283,14.995,20.217,23.042,3.28,2.658,16.616,11.162,16.631,11.792.121,4.863-.094,20.993-.094,20.993-14.081-31.98-67.284-70.75-67.284-70.75s4.964,11.06,7.371,14.828c13.806,21.611,29.86,38.011,50.5,54.224,2.426,1.906,5.23,3.379,7.819,5.107.628.419,1.548,1.045,1.562,1.593.123,4.84.071,8.02.071,12.862a15.81,15.81,0,0,1-5.917-3.731c-9.7-11.4-18.145-23.774-29.443-33.93-10.734-9.648-22.037-18.592-35.272-25.092a59.041,59.041,0,0,0-8.655-2.958c4.691,13.454,21.04,44.541,77.373,68.16,1.405.589,2.106,1.035,2.078,2.457-.049,2.552-.01,8.405-.01,8.405-12.663-10.58-27.214-18.386-44.584-21.641.774,1.586,1.146,2.493,1.639,3.335,6.4,10.946,16.91,16.353,29.267,19.039,3.759.818,7.715.8,11.561,1.314.755.1,2,.863,2.018,1.348.152,4.763.092,7.7.092,13.4-8.564-6.632-22.389-15.187-37.414-15.32,14.742,17.553,27.688,12.283,37.233,17.375,0,0,.049,8.3.049,11.97-2.669-1.966-5.111-4.7-7.869-6.334a14.453,14.453,0,0,0-9.9-2.059c4.023,5.01,8.139,7.63,14.79,8.66,3.779.447,3,3.058,3.023,4.467.036,2.322-.044,6.813.095,9.379l2.457-.089c.035-2.738.123-5.346,0-8.084-.069-1.551.641-1.918,2.277-2.346,5.81-1.518,9.923-5.129,12.962-9.928.4-.639.667-1.357,1.266-2.6a21.462,21.462,0,0,0-8.773,4.634c-2.388,1.891-5.076,4.641-7.731,6.893,0-3.635.047-7.54.047-10.882,11.687-1.3,20.74-7.108,27.724-15.6-10.2,1.674-19.757,5.141-27.771,12.945v-10.541c0-1.161,1.456-1.225,2.085-1.312a55.277,55.277,0,0,0,25.331-9.843,42.428,42.428,0,0,0,7.769-7.709c-13.062,2.127-23.253,5.677-32.775,14.621-1.039.938-2.363,2.368-2.363.8" transform="translate(-3733.289 -3819.977)" fill="#4b4b4a"/>
</svg>
