<svg xmlns="http://www.w3.org/2000/svg" width="53.267" height="50.224" viewBox="0 0 53.267 50.224">
  <g id="Group_820" data-name="Group 820" transform="translate(0.691 0.691)">
    <g id="Group_819" data-name="Group 819" transform="translate(18.559 9.834)">
      <g id="Group_818" data-name="Group 818">
        <g id="Group_817" data-name="Group 817">
          <g id="Group_816" data-name="Group 816">
            <g id="Group_815" data-name="Group 815">
              <path id="Path_689" data-name="Path 689" d="M1611.639,486.133a24,24,0,0,0-1.61-3.484,24.8,24.8,0,0,0-2.4-3.041c-2.037-2.336-4.154-4.746-4.154-7.869,0-.066.01-.131.01-.189s-.01-.131-.01-.2c0-3.123,2.116-5.533,4.154-7.861a25.021,25.021,0,0,0,2.4-3.049,24,24,0,0,0,1.61-3.484" transform="translate(-1603.471 -456.959)" fill="none" stroke="#222221" stroke-width="1.382"/>
            </g>
          </g>
        </g>
      </g>
    </g>
    <ellipse id="Ellipse_12" data-name="Ellipse 12" cx="25.942" cy="24.421" rx="25.942" ry="24.421" fill="none" stroke="#222221" stroke-width="1.382"/>
  </g>
</svg>
