<svg id="Group_1218" data-name="Group 1218" xmlns="http://www.w3.org/2000/svg" xmlns:xlink="http://www.w3.org/1999/xlink" width="188.162" height="179.916" viewBox="0 0 188.162 179.916">
  <defs>
    <clipPath id="clip-path">
      <rect id="Rectangle_485" data-name="Rectangle 485" width="188.162" height="179.916" fill="none"/>
    </clipPath>
  </defs>
  <g id="Group_1218-2" data-name="Group 1218" clip-path="url(#clip-path)">
    <path id="Path_810" data-name="Path 810" d="M39.74,76.508a2.78,2.78,0,0,0,.192.293,2.513,2.513,0,0,0,.16.317c2.977,5.18,8.842,7.389,14.515,9.525a51.922,51.922,0,0,1,7.6,3.313,51.8,51.8,0,0,1,6.659,4.938c4.679,3.854,9.517,7.839,15.492,7.839a2.532,2.532,0,0,1,.807,0c5.975,0,10.812-3.985,15.493-7.839a51.915,51.915,0,0,1,6.659-4.938,51.83,51.83,0,0,1,7.6-3.313c5.674-2.137,11.539-4.346,14.516-9.526a2.661,2.661,0,0,0,.158-.315,2.529,2.529,0,0,0,.193-.3c3.016-5.247,1.958-11.5.933-17.553a53.331,53.331,0,0,1-.976-8.226,53.2,53.2,0,0,1,.85-8.242c.869-5.661,1.766-11.5-.638-16.485l-.552-1.029-.012-.021-.655-1c-3.108-4.278-8.44-6.2-13.609-8.056a48.873,48.873,0,0,1-7.646-3.224,49.1,49.1,0,0,1-6.653-4.957C96.29,3.944,91.6.038,85.793.008,85.446,0,84.586,0,84.25,0h-.061C78.33,0,73.556,3.894,68.939,7.66a50.287,50.287,0,0,1-6.694,4.9,50.3,50.3,0,0,1-7.65,3.211c-5.449,1.959-11.078,3.983-14.2,8.773l-.259.407c-3.1,5.2-2.135,11.473-1.2,17.536a53.194,53.194,0,0,1,.85,8.242,53.056,53.056,0,0,1-.976,8.227c-1.023,6.05-2.081,12.305.935,17.554m1.414-17.156a55.752,55.752,0,0,0,1.009-8.607,55.821,55.821,0,0,0-.877-8.619c-.8-5.215-1.626-10.593.343-14.9l1.855,1.1c.682.4,1.227.73,1.666.987.693.414,1.751,1.048,2.213.877a1.4,1.4,0,0,0,.748-.569,1.355,1.355,0,0,0,.086-.8c-.054-.373-1.166-1.151-1.894-1.585-.451-.272-1.013-.607-1.717-1.027l-1.735-1.033c2.768-3.646,7.733-5.431,12.55-7.161a52.967,52.967,0,0,0,8.016-3.379,52.869,52.869,0,0,0,7.027-5.126C74.469,6.223,78.763,2.762,83.4,2.35c.061.664.022,1.736.041,2.5.1,3.924.307,4.363,1.541,4.37h.014c1.217,0,1.455-.017,1.561-3.925.019-.709-.014-2.278.054-2.942,4.548.459,8.765,3.928,12.7,7.2a51.443,51.443,0,0,0,6.992,5.193,51.459,51.459,0,0,0,8.024,3.4c4.74,1.7,9.63,3.464,12.355,7.04l-3.753,2.234a1.2,1.2,0,0,0-.417,1.647,1.179,1.179,0,0,0,1.616.411l3.777-2.248c1.966,4.309,1.141,9.686.34,14.9a56.005,56.005,0,0,0-.877,8.621,55.718,55.718,0,0,0,1.009,8.606c.887,5.241,1.8,10.649-.158,15.006-.576-.3-1.325-.707-1.941-1.041-3.565-1.929-4.025-2.178-4.648-1.094s-.176,1.353,3.285,3.463c.6.365,1.327.809,1.877,1.154-2.739,3.821-7.8,5.727-12.7,7.575a54.309,54.309,0,0,0-7.954,3.48,54.46,54.46,0,0,0-6.982,5.163c-4.051,3.336-8.229,6.778-12.913,7.242-.029-.647-.054-1.5-.075-2.2-.117-3.964-.136-4.573-1.393-4.573s-1.275.608-1.392,4.571c-.021.7-.046,1.559-.076,2.207-4.684-.465-8.862-3.907-12.913-7.244A54.555,54.555,0,0,0,63.4,87.894a54.442,54.442,0,0,0-7.954-3.48c-4.9-1.847-9.965-3.753-12.7-7.574.55-.345,1.276-.789,1.874-1.154,3.464-2.111,3.909-2.383,3.287-3.463s-1.082-.836-4.647,1.093c-.617.334-1.367.739-1.943,1.041-1.961-4.355-1.047-9.763-.16-15" transform="translate(9.292 0)" fill="#161615"/>
    <path id="Path_811" data-name="Path 811" d="M52.368,55.972c.814,3.053.746,6.81,1.475,10.66a12.922,12.922,0,0,0,3.017,6.243,2.753,2.753,0,0,0,.338.324,4.6,4.6,0,0,0,1.037.875,17.2,17.2,0,0,0,7.346,2.773c3.2.439,6.274.5,8.846,1.185a35.117,35.117,0,0,1,5.214,2.051c3.017,1.366,6.113,2.768,9.281,2.768a9.9,9.9,0,0,0,2.592-.338c.082-.022.157-.046.226-.072a2.389,2.389,0,0,0,.236-.052c4.122-1.114,6.673-4.7,9.14-8.174a36.13,36.13,0,0,1,3.463-4.4,36.135,36.135,0,0,1,4.346-3.531c3.109-2.28,6.313-4.632,7.67-8.127l.365-1.141h0l.218-1.168c.434-3.558-1.189-7-2.763-10.344a33.314,33.314,0,0,1-2.113-5.19c-.724-2.659-.731-5.887-1.21-9.227a16.043,16.043,0,0,0-2.567-6.659,13.338,13.338,0,0,0-1.417-1.624h0c-2.927-2.953-7.2-3.387-11.327-3.807a34.144,34.144,0,0,1-5.538-.856,34.058,34.058,0,0,1-5.189-2.122c-3.585-1.688-7.287-3.433-11.2-2.677l-.025-.014-.454.116c-4.138,1.049-6.744,4.6-9.264,8.034a35.976,35.976,0,0,1-3.531,4.345c-2.209,2.176-5.4,3.964-8.33,6.426a14,14,0,0,0-4.041,5.593,4.337,4.337,0,0,0-.255.826,1.9,1.9,0,0,0-.071.224c-1.1,4.071.694,8.036,2.431,11.869a35.475,35.475,0,0,1,2.051,5.214M49.979,40.595c.353.083.74.177,1.057.254,2.748.667,3.4.825,3.715-.35s-.32-1.373-3.029-2.181c-.312-.092-.694-.206-1.04-.312,1.221-2.756,4.095-4.8,6.883-6.78a38.46,38.46,0,0,0,4.692-3.71,38.348,38.348,0,0,0,3.779-4.634c2-2.73,4.069-5.543,6.8-6.744.081.315.169.663.258,1.011.123.49.226.892.313,1.225.141.559.245.973.258,1.022.183.567.321.622.587.766a1.4,1.4,0,0,0,.947.085,1.174,1.174,0,0,0,.769-1.4s-.041-.222-.1-.455c-.021-.093-.045-.186-.069-.277L75.4,16.563c-.088-.348-.176-.7-.257-1.009,2.837-.234,5.791,1.156,8.89,2.618a36.364,36.364,0,0,0,5.568,2.262,36.417,36.417,0,0,0,5.934.931c3.479.353,6.786.689,9.108,2.444-.247.292-.532.618-.759.88-1.736,2-2.258,2.6-1.419,3.448s1.449.329,3.46-1.387c.264-.224.592-.5.886-.749,1.693,2.3,1.991,5.559,2.307,8.987A35.354,35.354,0,0,0,110,40.938a35.348,35.348,0,0,0,2.257,5.579c1.437,3.049,2.8,5.95,2.582,8.738l-2.1-.533a1.2,1.2,0,0,0-1.463.87l0,.026a1.149,1.149,0,0,0,.832,1.4l2.155.547c-1.2,2.733-4.014,4.8-6.743,6.8a38.458,38.458,0,0,0-4.635,3.779,38.564,38.564,0,0,0-3.707,4.692c-1.983,2.789-4.025,5.662-6.78,6.885-.106-.349-.219-.73-.313-1.04-.806-2.709-1-3.355-2.174-3.033s-1.023.969-.355,3.717c.076.317.169.7.253,1.057-2.916.328-5.971-1.053-9.181-2.507a37.314,37.314,0,0,0-5.581-2.181,37.44,37.44,0,0,0-5.928-.891c-3.512-.339-6.851-.663-9.217-2.409.247-.267.521-.558.746-.8,1.888-2,2.482-2.593,1.614-3.459s-1.489-.31-3.488,1.574c-.238.226-.532.5-.8.753-1.748-2.368-2.07-5.706-2.41-9.219a37.462,37.462,0,0,0-.891-5.928,37.389,37.389,0,0,0-2.182-5.583c-1.453-3.21-2.836-6.263-2.506-9.18" transform="translate(11.702 3.238)" fill="#161615"/>
    <path id="Path_812" data-name="Path 812" d="M58.987,50.583l.009.034.035.131c.694,2.506,2.885,4.112,4.821,5.534a20.581,20.581,0,0,1,2.464,2,20.45,20.45,0,0,1,1.961,2.495c1.416,1.991,3.019,4.248,5.591,4.942.046.012.09.022.133.031s.086.029.132.041A6.181,6.181,0,0,0,75.748,66a14.092,14.092,0,0,0,5.615-1.649,20,20,0,0,1,2.952-1.164,20.133,20.133,0,0,1,3.139-.462c2.4-.233,5.126-.5,6.989-2.359.039-.037.074-.076.106-.113s.077-.07.117-.108c1.859-1.859,2.122-4.584,2.355-6.988a19.97,19.97,0,0,1,.462-3.138,19.988,19.988,0,0,1,1.163-2.952c1-2.2,2.125-4.692,1.439-7.232-.012-.045-.025-.087-.04-.127s-.02-.092-.032-.14c-.694-2.568-2.951-4.172-4.941-5.586a20.6,20.6,0,0,1-2.495-1.961,20.625,20.625,0,0,1-2-2.465c-1.222-1.666-2.583-3.52-4.535-4.447,0,0-.76-.278-1.085-.36s-1.225-.222-1.225-.222c-2.054-.1-4.051.841-5.842,1.685a19.017,19.017,0,0,1-2.933,1.2,19.1,19.1,0,0,1-3.134.454c-2.344.214-5,.457-6.825,2.262l-.431.427h0c-1.843,1.826-2.116,4.513-2.358,6.883a19.447,19.447,0,0,1-.482,3.135,19.451,19.451,0,0,1-1.2,2.933c-1,2.113-2.121,4.5-1.565,6.966Zm3.692-6.065a21.378,21.378,0,0,0,1.343-3.312,21.492,21.492,0,0,0,.557-3.53,12.164,12.164,0,0,1,1.029-4.592l.076.066c1.161,1.009,1.862,1.619,2.682.8s.222-1.519-.774-2.688l-.066-.077a12.116,12.116,0,0,1,4.515-.958,20.826,20.826,0,0,0,3.543-.527,21.023,21.023,0,0,0,3.323-1.341,12.763,12.763,0,0,1,4.222-1.454L82.8,28.188s-.312,1.585.779,1.863,1.53-1.277,1.53-1.277l.326-1.29a12.935,12.935,0,0,1,3.219,3.479,22.645,22.645,0,0,0,2.248,2.753,22.655,22.655,0,0,0,2.786,2.206,12.635,12.635,0,0,1,3.566,3.226c-1.478.44-2.44.728-2.127,1.875s1.23.937,2.758.567a12.042,12.042,0,0,1-1.412,4.492,22.188,22.188,0,0,0-1.3,3.321,22.268,22.268,0,0,0-.531,3.524,12.543,12.543,0,0,1-1,4.627l-.024-.022c-1.14-1.074-1.827-1.725-2.678-.874s-.192,1.533.881,2.67l.022.024a12.543,12.543,0,0,1-4.627,1,22.148,22.148,0,0,0-3.524.532,22.181,22.181,0,0,0-3.321,1.295,12.578,12.578,0,0,1-4.5,1.438c.378-1.553.6-2.475-.55-2.78a1.6,1.6,0,0,0-.421-.064c-.812,0-1.068.856-1.455,2.16l-.009.029A12.636,12.636,0,0,1,70.219,59.4a22.69,22.69,0,0,0-2.207-2.786,22.633,22.633,0,0,0-2.751-2.248,12.946,12.946,0,0,1-3.48-3.22l.2-.052.483-.123.927-.252a1.135,1.135,0,0,0,.736-.487,1.313,1.313,0,0,0-.04-1.163,1.269,1.269,0,0,0-.545-.653,1.185,1.185,0,0,0-.735-.007l-.958.262-.623.156a.131.131,0,0,1-.03.007,12.838,12.838,0,0,1,1.478-4.31" transform="translate(14.474 6.034)" fill="#161615"/>
    <path id="Path_813" data-name="Path 813" d="M11.469,139.068H8.852v6.546h.872V143.65h1.745a2.291,2.291,0,1,0,0-4.582m1,3.291a1.351,1.351,0,0,1-1,.419H9.724v-2.836h1.745a1.413,1.413,0,0,1,1,2.417" transform="translate(2.179 34.225)" fill="#161615"/>
    <path id="Path_814" data-name="Path 814" d="M20,141.355a2.293,2.293,0,0,0-2.3-2.287H15.085v6.546h.872V143.65H17.2l1.554,1.964h1.125l-1.615-2.034A2.3,2.3,0,0,0,20,141.355m-1.291,1a1.351,1.351,0,0,1-1,.419H15.957v-2.836H17.7a1.413,1.413,0,0,1,1,2.417" transform="translate(3.712 34.225)" fill="#161615"/>
    <path id="Path_815" data-name="Path 815" d="M21.424,145.615h3.71v-.872H22.3v-1.964h1.963V141.9H22.3v-1.964h2.837v-.872h-3.71Z" transform="translate(5.272 34.225)" fill="#161615"/>
    <path id="Path_816" data-name="Path 816" d="M29.961,141.469l-2.4-2.4h-.872v6.546h.872v-5.307l2.4,2.4,2.4-2.4v5.307h.872v-6.546h-.872Z" transform="translate(6.568 34.225)" fill="#161615"/>
    <rect id="Rectangle_481" data-name="Rectangle 481" width="0.872" height="6.546" transform="translate(42.951 173.294)" fill="#161615"/>
    <path id="Path_817" data-name="Path 817" d="M41.6,143.214a1.527,1.527,0,1,1-3.054,0v-4.145h-.872v4.145a2.415,2.415,0,0,0,2.4,2.4,2.4,2.4,0,0,0,2.4-2.4v-4.145H41.6Z" transform="translate(9.271 34.225)" fill="#161615"/>
    <path id="Path_818" data-name="Path 818" d="M47.306,141.469l-2.4-2.4h-.872v6.546h.872v-5.307l2.4,2.4,2.4-2.4v5.307h.872v-6.546h-.872Z" transform="translate(10.837 34.225)" fill="#161615"/>
    <path id="Path_819" data-name="Path 819" d="M55.407,139.069h-.872v6.546h3.708v-.872H55.407Z" transform="translate(13.421 34.225)" fill="#161615"/>
    <rect id="Rectangle_482" data-name="Rectangle 482" width="0.872" height="6.546" transform="translate(74.47 173.294)" fill="#161615"/>
    <path id="Path_820" data-name="Path 820" d="M65.948,144.514l-2.365-5.445h-.951l2.835,6.546h.952l2.836-6.546H68.3Z" transform="translate(15.414 34.225)" fill="#161615"/>
    <rect id="Rectangle_483" data-name="Rectangle 483" width="0.872" height="6.546" transform="translate(87.388 173.294)" fill="#161615"/>
    <path id="Path_821" data-name="Path 821" d="M77.455,144.017l-3.239-4.948h-.872v6.546h.872v-4.941l3.239,4.941h.872v-6.546h-.872Z" transform="translate(18.05 34.225)" fill="#161615"/>
    <path id="Path_822" data-name="Path 822" d="M83.012,142.778h2.356a2.321,2.321,0,0,1-.664,1.257,2.4,2.4,0,1,1,0-3.387l.621-.619a3.272,3.272,0,1,0,0,4.626,3.726,3.726,0,0,0,.961-2.749H83.012Z" transform="translate(19.624 34.225)" fill="#161615"/>
    <path id="Path_823" data-name="Path 823" d="M95.159,141.355a2.293,2.293,0,0,0-2.3-2.287H90.247v6.546h.872V143.65h1.247l1.554,1.964h1.125l-1.615-2.034a2.3,2.3,0,0,0,1.728-2.226m-1.291,1a1.351,1.351,0,0,1-1,.419H91.119v-2.836h1.745a1.413,1.413,0,0,1,1,2.417" transform="translate(22.21 34.225)" fill="#161615"/>
    <path id="Path_824" data-name="Path 824" d="M96.586,145.615h3.71v-.872H97.458v-1.964h1.963V141.9H97.458v-1.964H100.3v-.872h-3.71Z" transform="translate(23.77 34.225)" fill="#161615"/>
    <path id="Path_825" data-name="Path 825" d="M104.219,142.255l-1.012-.567a.918.918,0,0,1-.471-.576.946.946,0,0,1,.069-.751,1.048,1.048,0,0,1,.812-.48,1.116,1.116,0,0,1,.837.368l.717-.515a1.779,1.779,0,0,0-1.632-.734,1.753,1.753,0,0,0-1.51.951,1.792,1.792,0,0,0-.148,1.414,1.734,1.734,0,0,0,.908,1.09l1.012.567a.926.926,0,0,1,.471.568.961.961,0,0,1-.07.759,1.034,1.034,0,0,1-.811.48,1.113,1.113,0,0,1-.839-.366l-.715.516a1.781,1.781,0,0,0,1.641.724,1.739,1.739,0,0,0,1.5-.942,1.788,1.788,0,0,0,.15-1.414,1.744,1.744,0,0,0-.908-1.092" transform="translate(25.053 34.207)" fill="#161615"/>
    <rect id="Rectangle_484" data-name="Rectangle 484" width="0.872" height="6.546" transform="translate(133.159 173.294)" fill="#161615"/>
    <path id="Path_826" data-name="Path 826" d="M112.477,139.069h-2.4v6.546h2.4a3.273,3.273,0,0,0,0-6.546m1.7,4.966a2.319,2.319,0,0,1-1.7.707h-1.528v-4.8h1.528a2.385,2.385,0,0,1,2.4,2.4,2.315,2.315,0,0,1-.7,1.693" transform="translate(27.09 34.225)" fill="#161615"/>
    <path id="Path_827" data-name="Path 827" d="M117.024,145.615h3.71v-.872H117.9v-1.964h1.963V141.9H117.9v-1.964h2.837v-.872h-3.71Z" transform="translate(28.8 34.225)" fill="#161615"/>
    <path id="Path_828" data-name="Path 828" d="M126.4,144.017l-3.239-4.948h-.872v6.546h.872v-4.941l3.239,4.941h.872v-6.546H126.4Z" transform="translate(30.096 34.225)" fill="#161615"/>
    <path id="Path_829" data-name="Path 829" d="M131.955,139.941a2.285,2.285,0,0,1,1.692.707l.621-.619a3.274,3.274,0,1,0,0,4.626l-.621-.619a2.394,2.394,0,1,1-1.692-4.093" transform="translate(31.669 34.225)" fill="#161615"/>
    <path id="Path_830" data-name="Path 830" d="M135.442,145.615h3.71v-.872h-2.837v-1.964h1.963V141.9h-1.963v-1.964h2.837v-.872h-3.71Z" transform="translate(33.333 34.225)" fill="#161615"/>
    <path id="Path_831" data-name="Path 831" d="M143.076,142.255l-1.013-.567a.912.912,0,0,1-.47-.576.941.941,0,0,1,.067-.751,1.051,1.051,0,0,1,.814-.48,1.116,1.116,0,0,1,.836.368l.717-.515a1.779,1.779,0,0,0-1.632-.734,1.753,1.753,0,0,0-1.51.951,1.8,1.8,0,0,0-.148,1.414,1.734,1.734,0,0,0,.908,1.09l1.012.567a.926.926,0,0,1,.471.568.961.961,0,0,1-.07.759,1.034,1.034,0,0,1-.811.48,1.115,1.115,0,0,1-.839-.366l-.714.516a1.778,1.778,0,0,0,1.641.724,1.737,1.737,0,0,0,1.5-.942,1.783,1.783,0,0,0,.15-1.414,1.746,1.746,0,0,0-.907-1.092" transform="translate(34.616 34.207)" fill="#161615"/>
    <path id="Path_832" data-name="Path 832" d="M68.051,94.857V93.634a.351.351,0,0,0-.351-.353H56.558a.351.351,0,0,0-.351.353v1.224a.351.351,0,0,0,.351.351h4.628V107.54a.351.351,0,0,0,.351.351h1.225a.351.351,0,0,0,.351-.351V95.209H67.7a.351.351,0,0,0,.351-.351" transform="translate(13.833 22.957)" fill="#161615"/>
    <path id="Path_833" data-name="Path 833" d="M81,107.892h1.222a.351.351,0,0,0,.353-.351V93.634a.352.352,0,0,0-.353-.353H81a.351.351,0,0,0-.351.353V98.66H72.653V93.634a.352.352,0,0,0-.353-.353H71.078a.351.351,0,0,0-.351.353V107.54a.351.351,0,0,0,.351.351H72.3a.351.351,0,0,0,.353-.351v-6.953h7.991v6.953a.351.351,0,0,0,.351.351" transform="translate(17.406 22.957)" fill="#161615"/>
    <path id="Path_834" data-name="Path 834" d="M96.512,95.209a.351.351,0,0,0,.351-.351V93.632a.351.351,0,0,0-.351-.351H86.679a.351.351,0,0,0-.351.351V107.54a.351.351,0,0,0,.351.351h10a.351.351,0,0,0,.351-.351v-1.225a.351.351,0,0,0-.351-.351H88.254v-5.378h7.077a.351.351,0,0,0,.351-.351V99.011a.351.351,0,0,0-.351-.351H88.254v-3.45Z" transform="translate(21.246 22.957)" fill="#161615"/>
    <path id="Path_835" data-name="Path 835" d="M19.839,128.048a9.37,9.37,0,0,0-.206-1.892,8.194,8.194,0,0,0-.658-1.92,8.606,8.606,0,0,0-1.128-1.73,5.919,5.919,0,0,0-1.224-1.1,4.4,4.4,0,0,0,1.083-1.591,6.379,6.379,0,0,0,.439-2.363,6.01,6.01,0,0,0-.621-2.908,4.7,4.7,0,0,0-1.674-1.771,6.44,6.44,0,0,0-2.383-.84,17.778,17.778,0,0,0-2.7-.2H.353a.351.351,0,0,0-.353.351v23.748a.351.351,0,0,0,.353.351H13.217a4.983,4.983,0,0,0,2.806-.834,7.715,7.715,0,0,0,2.077-2.019,9.6,9.6,0,0,0,1.291-2.618,8.981,8.981,0,0,0,.447-2.665M2.8,114.526h7.973a7.344,7.344,0,0,1,3.584.654,2.411,2.411,0,0,1,1,2.274,3.461,3.461,0,0,1-.288,1.535,1.894,1.894,0,0,1-.8.842,4,4,0,0,1-1.392.427,14.563,14.563,0,0,1-2,.123H2.8ZM16.788,129.7a6.615,6.615,0,0,1-.769,1.762,5.476,5.476,0,0,1-1.235,1.387,2.434,2.434,0,0,1-1.566.537H2.8V123.175H13.217a3.146,3.146,0,0,1,1.769.482,3.88,3.88,0,0,1,1.19,1.24,5.706,5.706,0,0,1,.663,1.612,6.757,6.757,0,0,1,.206,1.539,6.41,6.41,0,0,1-.258,1.656" transform="translate(0 27.498)" fill="#161615"/>
    <path id="Path_836" data-name="Path 836" d="M39.874,133.39H25.235V112.084a.351.351,0,0,0-.351-.351H22.792a.351.351,0,0,0-.351.351v23.748a.351.351,0,0,0,.351.351H39.874a.351.351,0,0,0,.351-.351v-2.091a.351.351,0,0,0-.351-.351" transform="translate(5.523 27.498)" fill="#161615"/>
    <path id="Path_837" data-name="Path 837" d="M60.885,115.21a12.687,12.687,0,0,0-3.946-2.667A12.465,12.465,0,0,0,40.6,119.177a12.406,12.406,0,0,0,0,9.683,12.477,12.477,0,0,0,6.633,6.635,12.271,12.271,0,0,0,4.878.983,12.01,12.01,0,0,0,4.825-.984,12.678,12.678,0,0,0,3.946-2.669,12.513,12.513,0,0,0,0-17.615m.077,12.581a9.622,9.622,0,0,1-2.051,3.059,9.912,9.912,0,0,1-3.063,2.071,9.679,9.679,0,0,1-7.523,0,9.675,9.675,0,0,1-5.149-5.133,9.668,9.668,0,0,1,0-7.539,9.678,9.678,0,0,1,5.149-5.131,9.509,9.509,0,0,1,3.788-.764,9.3,9.3,0,0,1,3.735.763,9.937,9.937,0,0,1,3.063,2.07,9.79,9.79,0,0,1,2.051,10.606" transform="translate(9.75 27.456)" fill="#161615"/>
    <path id="Path_838" data-name="Path 838" d="M79.83,122.454a11.1,11.1,0,0,0-3.256-1.378,14.192,14.192,0,0,0-3.437-.442h-.325a7.562,7.562,0,0,1-1.791-.226,6.043,6.043,0,0,1-1.67-.663,4.3,4.3,0,0,1-1.217-1.049,2.049,2.049,0,0,1-.447-1.315A2.3,2.3,0,0,1,68.109,116a3.423,3.423,0,0,1,1.211-1.028,6.7,6.7,0,0,1,1.9-.632,13.38,13.38,0,0,1,2.457-.211,12.172,12.172,0,0,1,3.184.349,12.754,12.754,0,0,1,2.42.946.349.349,0,0,0,.3.012.354.354,0,0,0,.2-.219l.612-1.945a.353.353,0,0,0-.188-.426,13.311,13.311,0,0,0-1.686-.648,15.545,15.545,0,0,0-1.568-.388,11.5,11.5,0,0,0-1.58-.186c-.521-.024-1.083-.036-1.693-.036h0a12.559,12.559,0,0,0-6.378,1.53,4.883,4.883,0,0,0-2.508,4.191v.145a4.528,4.528,0,0,0,.844,2.768,6.446,6.446,0,0,0,2.037,1.792,9.267,9.267,0,0,0,2.566.973,11.679,11.679,0,0,0,2.471.3,10.961,10.961,0,0,1,4.151.655,7.308,7.308,0,0,1,2.374,1.492,4.108,4.108,0,0,1,.643,5.34,6,6,0,0,1-1.8,1.737,8.389,8.389,0,0,1-2.421,1.021,10.405,10.405,0,0,1-2.51.331,17.4,17.4,0,0,1-3.71-.388c-1.181-.26-2.4-.586-3.6-.964l-.216-.071a.353.353,0,0,0-.412.152,5.961,5.961,0,0,0-.462,1.017q-.211.579-.386.966a.354.354,0,0,0,.169.462,12.452,12.452,0,0,0,1.965.724,19.213,19.213,0,0,0,2.258.495c.761.121,1.515.213,2.242.273s1.369.091,1.939.091a14.025,14.025,0,0,0,4.029-.555,9.961,9.961,0,0,0,3.25-1.626,7.579,7.579,0,0,0,3.019-6.055v-.151a6.083,6.083,0,0,0-.96-3.4,8.01,8.01,0,0,0-2.429-2.373" transform="translate(15.829 27.462)" fill="#161615"/>
    <path id="Path_839" data-name="Path 839" d="M100.246,122.454a11.1,11.1,0,0,0-3.256-1.378,14.192,14.192,0,0,0-3.437-.442h-.325a7.562,7.562,0,0,1-1.791-.226,6.043,6.043,0,0,1-1.67-.663A4.3,4.3,0,0,1,88.55,118.7a2.049,2.049,0,0,1-.447-1.315A2.3,2.3,0,0,1,88.525,116a3.423,3.423,0,0,1,1.211-1.028,6.7,6.7,0,0,1,1.9-.632,13.38,13.38,0,0,1,2.457-.211,12.172,12.172,0,0,1,3.184.349,12.754,12.754,0,0,1,2.42.946.349.349,0,0,0,.3.012.354.354,0,0,0,.2-.219l.612-1.945a.353.353,0,0,0-.188-.426,13.311,13.311,0,0,0-1.686-.648,15.544,15.544,0,0,0-1.568-.388,11.5,11.5,0,0,0-1.58-.186c-.521-.024-1.083-.036-1.693-.036h0a12.559,12.559,0,0,0-6.378,1.53,4.883,4.883,0,0,0-2.508,4.191v.145a4.528,4.528,0,0,0,.844,2.768,6.446,6.446,0,0,0,2.037,1.792,9.267,9.267,0,0,0,2.566.973,11.679,11.679,0,0,0,2.471.3,10.961,10.961,0,0,1,4.151.655,7.309,7.309,0,0,1,2.374,1.492,4.108,4.108,0,0,1,.643,5.34,6,6,0,0,1-1.8,1.737,8.388,8.388,0,0,1-2.421,1.021,10.405,10.405,0,0,1-2.51.331,17.4,17.4,0,0,1-3.71-.388c-1.181-.26-2.4-.586-3.6-.964l-.216-.071a.353.353,0,0,0-.412.152,5.962,5.962,0,0,0-.462,1.017q-.211.579-.386.966a.354.354,0,0,0,.169.462,12.452,12.452,0,0,0,1.965.724,19.213,19.213,0,0,0,2.258.495c.761.121,1.515.213,2.242.273s1.369.091,1.939.091a14.025,14.025,0,0,0,4.029-.555,9.961,9.961,0,0,0,3.25-1.626,7.579,7.579,0,0,0,3.019-6.055v-.151a6.083,6.083,0,0,0-.96-3.4,8.01,8.01,0,0,0-2.429-2.373" transform="translate(20.853 27.462)" fill="#161615"/>
    <path id="Path_840" data-name="Path 840" d="M130.089,124.019a12.467,12.467,0,0,0-3.617-8.809,12.687,12.687,0,0,0-3.946-2.667,12.465,12.465,0,0,0-16.335,6.633,12.406,12.406,0,0,0,0,9.683,12.477,12.477,0,0,0,6.633,6.635,12.271,12.271,0,0,0,4.878.983,12.01,12.01,0,0,0,4.825-.984,12.678,12.678,0,0,0,3.946-2.669,12.455,12.455,0,0,0,3.617-8.806m-3.54,3.772a9.622,9.622,0,0,1-2.051,3.059,9.912,9.912,0,0,1-3.063,2.071,9.679,9.679,0,0,1-7.523,0,9.675,9.675,0,0,1-5.149-5.133,9.668,9.668,0,0,1,0-7.539,9.678,9.678,0,0,1,5.149-5.131,9.509,9.509,0,0,1,3.788-.764,9.3,9.3,0,0,1,3.735.763,9.937,9.937,0,0,1,3.063,2.07,9.79,9.79,0,0,1,2.051,10.606" transform="translate(25.892 27.456)" fill="#161615"/>
    <path id="Path_841" data-name="Path 841" d="M155.552,111.3a.354.354,0,0,0-.385.081l-11.458,11.883-11.5-11.919a.352.352,0,0,0-.6.244v24.361a.351.351,0,0,0,.351.351h2.091a.351.351,0,0,0,.351-.351V117.646l9.054,9.257a.355.355,0,0,0,.25.106h0a.355.355,0,0,0,.25-.1l9.021-9.155v18.2a.351.351,0,0,0,.351.351h2.09a.351.351,0,0,0,.351-.351V111.63a.351.351,0,0,0-.221-.326" transform="translate(32.389 27.377)" fill="#161615"/>
  </g>
</svg>
