<svg id="Group_1306" data-name="Group 1306" xmlns="http://www.w3.org/2000/svg" xmlns:xlink="http://www.w3.org/1999/xlink" width="780.841" height="612.336" viewBox="0 0 780.841 612.336">
  <defs>
    <clipPath id="clip-path">
      <rect id="Rectangle_525" data-name="Rectangle 525" width="780.841" height="612.336" fill="none"/>
    </clipPath>
  </defs>
  <g id="Group_1303" data-name="Group 1303">
    <g id="Group_1302" data-name="Group 1302" clip-path="url(#clip-path)">
      <path id="Path_926" data-name="Path 926" d="M879.435,131.987l-1.8,2.246L897.4,225.858S826.885,256.4,825.538,256.4h-7.186L659.8,196.664l-11.678-69.618-22.008,9.881-1.8-6.288-11.678,1.572,4.941,28.97L609.5,186.333l-5.39,2.246-14.372-7.186L584.6,152.31a1.531,1.531,0,0,0-1.724-1.25l-.039.005a1.578,1.578,0,0,0-1.339,1.85c1.059,5.7,4.6,24.768,5.385,28.991a2.526,2.526,0,0,1-.226,1.594l-.348.7a2.538,2.538,0,0,1-1.992,1.388l-26.149,2.882a1.121,1.121,0,0,0,.238,2.229l29.306-3.017,9.208,10.555-8.31,8.309-2.695-2.47-6.961,6.962,5.389,4.941-.22,3.3a.982.982,0,0,0,1.106,1.039l12.588-1.642,4.491,3.593,25.451,21.859,7.786-3.593,3.593-5.39,7.785,1.8-5.39,14.373L645.73,254l2.4,4.791L798.739,307.9,819.4,314.49l36.168,5.668a10.183,10.183,0,0,0,7.274-1.62l6.952-4.692a10.192,10.192,0,0,0,2.832-2.878l3.366-5.162,3.056-14.771a9.343,9.343,0,0,0-.369-5.089l-.67-1.845a9.34,9.34,0,0,1-.454-4.616l.31-2.016a9.346,9.346,0,0,1,3.129-5.653l1.654-1.429a9.347,9.347,0,0,1,5.393-2.246l.109-.008a9.348,9.348,0,0,1,1.434,0l3.176.244,8.684-22.158-44.093,14.7a1.95,1.95,0,0,1-1.25-3.695l48.637-16.692,7.486-4.192,9.282-2.4,9.882,1.2-20.361-97.614Z" transform="translate(-178.318 -40.66)" fill="#edece1"/>
      <path id="Path_927" data-name="Path 927" d="M1060.972,317.1l7.295-21.293,3.594-2.919,11.453-2.021,10.779,1.348,4.491,18.864-34.36,7.635-1.282.405a1.58,1.58,0,0,1-1.971-2.019" transform="translate(-339.526 -93.088)" fill="#edece1"/>
      <path id="Path_928" data-name="Path 928" d="M1048.392,377.261l4.354-17.2a.7.7,0,0,1,.268-.4l4.625-3.364a.722.722,0,0,1,.241-.113l41.506-10.541a.7.7,0,0,1,.873.625l.375,4.688a.683.683,0,0,1-.01.19l-1.75,8.969a.724.724,0,0,0,0,.288l2.161,9.726a.706.706,0,0,0,.24.39l10.278,8.464a.7.7,0,0,1-.228,1.211l-20.729,6.769a.7.7,0,0,1-.129.029l-30.8,3.989a.7.7,0,0,1-.6-.208l-6.668-6.883a.712.712,0,0,1-.086-.109l-3.839-5.972a.7.7,0,0,1-.091-.553" transform="translate(-335.521 -110.615)" fill="#edece1"/>
      <path id="Path_929" data-name="Path 929" d="M1044.246,346.029l-1.1-.048a3.213,3.213,0,0,0-2.092.658l-.408.312a3.214,3.214,0,0,0-1.26,2.449l-.046,1.429a3.213,3.213,0,0,0,1.306,2.691l.729.537a3.212,3.212,0,0,0,4-.148l1.026-.879a3.213,3.213,0,0,0,1.122-2.44v-1.163a3.213,3.213,0,0,0-1.027-2.355l-.2-.189a3.214,3.214,0,0,0-2.047-.855" transform="translate(-332.632 -110.727)" fill="#edece1"/>
      <path id="Path_930" data-name="Path 930" d="M689.718,378.37,673.1,359.056l13.474-8.085,58.838,20.212-7.635,21.559-23.8-16.169h-4.941Z" transform="translate(-215.42 -112.325)" fill="#edece1"/>
      <path id="Path_931" data-name="Path 931" d="M784.917,384.66l-9.432,21.559,29.195,13.025,12.577-24.7Z" transform="translate(-248.187 -123.107)" fill="#edece1"/>
      <path id="Path_932" data-name="Path 932" d="M839.673,403.051a.657.657,0,0,1,.783-.324c5.607,1.792,54.35,17.375,55.619,17.8,1.348.449,29.644,6.737,30.991,7.186,1.251.418,13.731.447,15.51.449a.652.652,0,0,1,.384.124l10.885,7.838a.661.661,0,0,1,.239.321l3.936,11.37a.672.672,0,0,1,.036.222c-.037,3.423-.9,83.075-.9,87.47,0,3.878-2.009,13.114-2.558,15.564a.659.659,0,0,1-.752.505l-18.239-2.969a.663.663,0,0,1-.545-.532l-2.6-13.877a.616.616,0,0,1-.01-.079L930.662,506.8a.679.679,0,0,0-.011-.082L928.1,493.556a.663.663,0,0,0-.84-.509l-37.694,11.265a.663.663,0,0,1-.836-.49l-8.794-39.136a.671.671,0,0,0-.125-.262l-11.049-14.143a.675.675,0,0,0-.216-.18l-41.5-21.634a.662.662,0,0,1-.28-.9Z" transform="translate(-264.575 -128.879)" fill="#edece1"/>
      <path id="Path_933" data-name="Path 933" d="M681.5,398.925v1.4a3.9,3.9,0,0,1-.067.718l-.823,4.388a3.9,3.9,0,0,0,1.564,3.887l35.32,25.229a3.909,3.909,0,0,1,.694.634l6.747,7.872a3.893,3.893,0,0,1,.93,2.778l-.309,4.94a3.892,3.892,0,0,0,.143,1.313l1.4,4.909a3.9,3.9,0,0,1,.126,1.5l-4.741,43.1a3.9,3.9,0,0,1-.751,1.9l-48.555,65.029a3.893,3.893,0,0,1-2.977,1.562l-19.038.705a3.891,3.891,0,0,0-3.727,3.458c-1.2,10.845-4.871,44.494-4.119,45.624l.028.04a3.87,3.87,0,0,0,5.824.574l78.9-73.7q.134-.124.277-.235l9.177-7.092a3.9,3.9,0,0,1,1.236-.641l10.317-3.175a3.911,3.911,0,0,1,1.4-.164l72.018,4.688a3.9,3.9,0,0,0,4.01-2.862l1.61-5.9a3.888,3.888,0,0,0,.054-1.829l-11.839-56.128a3.873,3.873,0,0,0-.286-.851l-9.547-20.339a3.894,3.894,0,0,0-1.848-1.86l-77.468-36.973a3.845,3.845,0,0,1-.617-.367l-25.057-18.262a3.9,3.9,0,0,0-2.572-.737l-13.826.987a3.9,3.9,0,0,0-3.617,3.885" transform="translate(-205.859 -126.11)" fill="#edece1"/>
      <path id="Path_934" data-name="Path 934" d="M1111.594,420.99l-52.145,12.5a7.659,7.659,0,0,0-3.764,2.167l-14.316,15.032a7.665,7.665,0,0,0-2.114,5.221l-.873,103.869s48.508,8.533,49.855,8.983,14.373,1.8,14.373,1.8l9.432-.9Z" transform="translate(-332.325 -134.734)" fill="#edece1"/>
      <path id="Path_935" data-name="Path 935" d="M972.376,632.1l-76.355-8.983-3.144,48.957-1.8,34.135,6.737-.45,69.168-9.881Z" transform="translate(-285.182 -199.423)" fill="#edece1"/>
      <path id="Path_936" data-name="Path 936" d="M1069.374,647.928l-36.83-7.635-5.39,35.932,15.721,22.457,16.169,25.6,19.313,21.56,7.935-2.4,22.158-1.8.6-9.582Z" transform="translate(-328.731 -204.92)" fill="#edece1"/>
      <path id="Path_937" data-name="Path 937" d="M1099.154,652.4l32.638,70.965-.3-69.468-11.079,1.5Z" transform="translate(-351.774 -208.796)" fill="#edece1"/>
      <path id="Path_938" data-name="Path 938" d="M1131.589,795.081l-11.978.6-14.672,3.294,5.689,30.841-1.2,14.074s-9.881,21.858-8.983,21.858h31.74Z" transform="translate(-352.17 -254.459)" fill="#edece1"/>
      <path id="Path_939" data-name="Path 939" d="M1036.665,730.152l26.227,45.074,9.432,16.618-1.348,12.576-7.635,18.864-5.389,14.373-39.824,1.048,3.893-128.605,4.94-.449Z" transform="translate(-325.842 -227.117)" fill="#edece1"/>
      <path id="Path_940" data-name="Path 940" d="M580.019,355.884l1.2-5.689-21.858-19.163,2.4-20.361-3.294-8.385-30.542-29.044-6.887-.9-39.525,18.565-6.588,2.1h-9.581l-12.876-8.683L427.01,259.766l-10.779-3.892-14.073-2.995-2.734-3.711a2.957,2.957,0,0,0-3.67-.906L377.6,257.072l-18.265,6.288,11.378,19.463,19.766-8.51a2.257,2.257,0,0,1,2.816.89l.035.058a2.257,2.257,0,0,1-.982,3.235l-19.24,8.818,8.983,31.141,2.1,4.791,23.355,4.192,14.073-.6,3.125-36.649a2.452,2.452,0,0,1,4.894.265l-.533,22.909,10.48,1.2.6,11.379,34.435,1.2,11.678-1.2,24.853-8.384,7.187-.3,8.384.3,8.085,5.689Z" transform="translate(-115.003 -79.36)" fill="#edece1"/>
      <path id="Path_941" data-name="Path 941" d="M339.963,240l6.288,10.779,24.892-6.934a4.272,4.272,0,0,0,1.186-.537l8.023-5.24a.736.736,0,0,0-.462-1.349Z" transform="translate(-108.802 -75.757)" fill="#edece1"/>
      <path id="Path_942" data-name="Path 942" d="M312.8,241.982l6.138,10.63-41.771,8.833-1.5-14.373Z" transform="translate(-88.226 -77.444)" fill="#edece1"/>
      <path id="Path_943" data-name="Path 943" d="M246.931,250.349l1.2,14.672-14.672,3.893S213.4,274.6,212.2,275.2a57.727,57.727,0,0,1-6.83,1.763,1.562,1.562,0,0,1-1.865-1.22l-.757-3.786a1.564,1.564,0,0,1,.245-1.194l5.613-8.138,13.475-8.983Z" transform="translate(-64.877 -80.122)" fill="#edece1"/>
      <path id="Path_944" data-name="Path 944" d="M802.359,618.215l-41.45-4.116a.728.728,0,0,0-.145,0l-16.64,1.783a.754.754,0,0,0-.11.02l-10.852,2.933a.709.709,0,0,0-.3.169l-54.965,51.978-37.043,31.793A.71.71,0,0,0,641.11,704l7.739,2.321,15.724,5.34a.719.719,0,0,1,.258.155L679.6,725.693a.717.717,0,0,0,.211.137l20.182,8.5a1.925,1.925,0,0,1,.7,3.041.711.711,0,0,1-.815.185l-23.087-9.937a.707.707,0,0,1-.171-.1l-16.885-13.924a.706.706,0,0,0-.231-.127l-14.545-4.75L632.6,705.294a4.659,4.659,0,0,1-2.676-1.97l-1.378-2.143a4.639,4.639,0,0,0-.851-.986,4.659,4.659,0,0,1-1.543-4.163l7.694-53.859a2.125,2.125,0,0,0-2.019-2.423l-4.941-.2a.716.716,0,0,0-.364.084l-3.116,1.677a.71.71,0,0,0-.3.942,6.1,6.1,0,0,1,.256,4.869l-.782,2.085a.716.716,0,0,0-.02.439l3.793,13.711a.717.717,0,0,1,.019.284l-7.987,58.872a.709.709,0,0,0,.465.764l85.878,30.607a.715.715,0,0,1,.21.118l7.817,6.37a.715.715,0,0,0,.4.157l11.1.832a.71.71,0,0,0,.755-.6l2.87-18.94a.715.715,0,0,0-.031-.337l-10.987-32.07a.7.7,0,0,1-.038-.214l-.593-26.07a.706.706,0,0,1,.069-.322l6.414-13.411a.712.712,0,0,1,.3-.319l19.649-10.558a.716.716,0,0,1,.441-.077l55.013,8.238a.71.71,0,0,0,.812-.641L803,618.983a.71.71,0,0,0-.637-.768" transform="translate(-197.906 -196.536)" fill="#edece1"/>
      <path id="Path_945" data-name="Path 945" d="M792.006,687.632,772.843,704.1V706.8S847.1,726.258,847.1,725.36s1.5-30.542,1.5-30.542Z" transform="translate(-247.341 -220.07)" fill="#edece1"/>
      <path id="Path_946" data-name="Path 946" d="M846.731,741.443,770.376,721.98l-1.5,16.169,12.576,36.83,42.659-1.991a3.139,3.139,0,0,1,3.072,2l12.658,32.628,9.581,15.57,19.463-9.282-13.175-24.553Z" transform="translate(-246.073 -231.063)" fill="#edece1"/>
      <path id="Path_947" data-name="Path 947" d="M891.3,747.116l11.977,51.8,21.889-10.684.119.054,40.273-10.929.6-39.525Z" transform="translate(-285.253 -236.137)" fill="#edece1"/>
      <path id="Path_948" data-name="Path 948" d="M972.765,802.127l-23.356,3.893-36.53,16.169,6.587,16.169,26.35,29.344h26.05Z" transform="translate(-292.159 -256.714)" fill="#edece1"/>
      <path id="Path_949" data-name="Path 949" d="M932.041,887.169l-22.158-25.152L890.42,871.6l2.995,15.57Z" transform="translate(-284.971 -275.881)" fill="#edece1"/>
      <path id="Path_950" data-name="Path 950" d="M853.443,867.45l-2.1-9.282-6.035-11.276.121-.028-17.266-42.77a2.91,2.91,0,0,0-2.843-1.817l-39.852,1.993-4.042,39.45.744.565-.294,4.3,1.5,4.192-.3,14.672Z" transform="translate(-250.09 -256.76)" fill="#edece1"/>
      <path id="Path_951" data-name="Path 951" d="M736.623,868.407l.3-17.367-17.666-26.65-51.8-20.062-.3,4.491,3.294,8.085.9,17.966-.3,6.587,4.491,26.949Z" transform="translate(-213.517 -257.418)" fill="#edece1"/>
      <path id="Path_952" data-name="Path 952" d="M641.536,797.292l-32.114-11.678-1.572,11.228-.224,12.576-3.144,31.44s-3.594,2.92-3.594,4.267-.449,18.64-.449,18.64l48.283-.9-4.267-25.377-9.342,2.055a1.872,1.872,0,0,1-.9-3.634l9.791-2.688,1.572-2.47,1.348-4.941-3.818-15.271-2.47-8.983Z" transform="translate(-192.165 -251.429)" fill="#edece1"/>
      <path id="Path_953" data-name="Path 953" d="M354.826,885.236l-4.492-19.314-10.554-5.839-31.749,5.487L277.8,868.392l-13.025,2.021-4.941.449-11.9-2.695-15.72-10.555-1.123,11.229-.225,17.068,73.828-.394.057.842Z" transform="translate(-73.885 -274.471)" fill="#edece1"/>
      <path id="Path_954" data-name="Path 954" d="M197.9,761.173l-20.212,22.682,30.991,25.6,8.309-12.8,9.208-20.211Z" transform="translate(-56.867 -243.607)" fill="#edece1"/>
      <path id="Path_955" data-name="Path 955" d="M213.688,738.514l26.275,14.373,19.762-40.648L244,703.7Z" transform="translate(-68.389 -225.214)" fill="#edece1"/>
      <path id="Path_956" data-name="Path 956" d="M228.546,604.913c.15-.6.749-3.743.749-3.743l-12.127-7.336-7.935,2.4-40.572,2.1.749,17.667Z" transform="translate(-53.978 -190.051)" fill="#edece1"/>
      <path id="Path_957" data-name="Path 957" d="M131.445,617.674,130.4,598.211l-7.935-2.4-4.791,6.288-11.827,4.341-17.217,10.93-20.661,4.042-.15,20.511,24.7-12.277Z" transform="translate(-21.704 -190.685)" fill="#edece1"/>
      <path id="Path_958" data-name="Path 958" d="M69.728,596.554l-.15-18.715,6.737-.3,16.02,4.192,26.2,7.336-2.845,3.294-10.33,2.995-5.091,5.839-8.683,4.192-4.791,1.5-17.217,3.742Z" transform="translate(-22.268 -184.837)" fill="#edece1"/>
      <path id="Path_959" data-name="Path 959" d="M37.05,657.14l.6-18.715L.22,636.33v38.477Z" transform="translate(-0.07 -203.652)" fill="#edece1"/>
      <path id="Path_960" data-name="Path 960" d="M37.35,605.923l1.2-21.859-2.1-33.387-18.565,3.594L13.1,555.618l-12.875-1.2v49.556Z" transform="translate(-0.071 -176.239)" fill="#edece1"/>
      <path id="Path_961" data-name="Path 961" d="M68.3,531.024l-2.246-40.273.3-26.949,5.24-12.426,47.161,27.4-4.042,28.446-17.667-1.048L90.986,483.2a1.661,1.661,0,0,0-3.245.694l1.82,11.051-16.319,3.743-.224.852a2.777,2.777,0,0,0,1.231,3.073l.191.118,16.469-2.695,3.443,10.331,19.912,1.5-.749,14.822,2.845,3.892,4.641.749-2.695,11.528-35.482-9.731Z" transform="translate(-21.14 -144.459)" fill="#edece1"/>
      <path id="Path_962" data-name="Path 962" d="M152.27,567.614l-2.545,12.127,9.582,3.294,17.217-1.348,21.559-.6,4.492-.9-21.559-19.163-7.486,7.336-4.791.9Z" transform="translate(-47.918 -179.552)" fill="#edece1"/>
      <path id="Path_963" data-name="Path 963" d="M228.056,474.4l-26.915-14.668-1.647-22.906L195.3,419.009l30.542,1.946-4.791,38.477,2.994,7.037,8.534,5.839-.216.541a3.062,3.062,0,0,1-4.31,1.552" transform="translate(-62.505 -134.1)" fill="#edece1"/>
      <path id="Path_964" data-name="Path 964" d="M244.341,414.825,240,459.441l2.695,5.24,5.39,4.791,14.672-33.387Z" transform="translate(-76.81 -132.761)" fill="#edece1"/>
      <path id="Path_965" data-name="Path 965" d="M178.24,441.428l-.3-18.115-8.385-31.74-1.946-19.463-25.152,1.2.15,1.946,10.48,18.265,13.175,40.124Z" transform="translate(-45.592 -119.09)" fill="#edece1"/>
      <path id="Path_966" data-name="Path 966" d="M164.237,349.394l-.3-8.983-5.091-19.163-23.056,8.983-.6,9.581,2.4,11.977Z" transform="translate(-43.267 -102.812)" fill="#edece1"/>
      <path id="Path_967" data-name="Path 967" d="M916.842,556.138,920.435,575l.449,15.72,36.83,4.042-4.94-47.609Z" transform="translate(-293.427 -175.112)" fill="#edece1"/>
      <path id="Path_968" data-name="Path 968" d="M220.489,378.235V363.413l-10.779-61.982-6.737,2.246-20.661,8.533L185.9,344.1l5.839,33.237Z" transform="translate(-58.347 -96.47)" fill="#edece1"/>
      <path id="Path_969" data-name="Path 969" d="M241.073,358.287l-9.881-62.881,27.4-7.186,3.144,18.864,2.7,44.915Z" transform="translate(-73.991 -92.242)" fill="#edece1"/>
      <path id="Path_970" data-name="Path 970" d="M1129.021,140.257l-41.1,1.348,27.623,122.168,3.368,32.339,9.432,14.148Z" transform="translate(-348.18 -44.888)" fill="#edece1"/>
      <path id="Path_971" data-name="Path 971" d="M101.327,768.439l28.745,16.618,45.813,38.178v35.034l-99.261-.449,18.415-57.041Z" transform="translate(-24.523 -245.932)" fill="#edece1"/>
      <path id="Path_972" data-name="Path 972" d="M192.9,687.815l-8.833-6.587-4.192-3.144-8.384-4.641-28.147,2.546-5.24,2.245-27.4,4.941-19.763-5.839L79.715,663.412,68.036,669.7l33.687,54.8L138.1,748.3l22.008-23.8,1.342-1.5.155.154Z" transform="translate(-21.774 -212.319)" fill="#edece1"/>
      <path id="Path_973" data-name="Path 973" d="M.449,699.661l38.178-18.415,15.72,31.441,16.618,26.5S67.372,758.05,66.474,759.4s-19.314,70.067-19.314,70.067L0,829.015Z" transform="translate(0 -218.027)" fill="#edece1"/>
      <path id="Path_974" data-name="Path 974" d="M422.751,828.837v12.127L424.1,853.54l29.643-5.839,23.355-.449,12.127,2.245,28.745-14.372,8.983-5.39,13.924,3.593,5.39-50.3-21.11-2.695L501.8,801.888l-26.051,10.331Z" transform="translate(-135.298 -249.737)" fill="#edece1"/>
      <path id="Path_975" data-name="Path 975" d="M423.412,886.28l1.8-3.593,61.533-2.7,42.669-18.415,12.126,8.533-2.695,16.619Z" transform="translate(-135.509 -275.74)" fill="#edece1"/>
      <path id="Path_976" data-name="Path 976" d="M94.789,646.13s52.55-17.068,53.9-17.516,64.9-10.78,64.9-10.78l33.237,16.619-21.559,44.465L182.6,653.093l-33.686,2.47-24.253,6.063L102.2,656.461Z" transform="translate(-30.336 -197.732)" fill="#edece1"/>
      <path id="Path_977" data-name="Path 977" d="M539.024,676.41,530.041,732.1l-26.949.9L461.771,760.85l-6.288-17.966-26.051-55.245L369.7,668.326l-.45-14.822L484,688.313l9.432-1.8,10.779-10.779L514.1,668.1l11.086-3.946a5.081,5.081,0,0,1,4.171.345l6.077,3.377Z" transform="translate(-118.174 -209.148)" fill="#edece1"/>
      <path id="Path_978" data-name="Path 978" d="M456.4,774.426,439.78,736.249l-15.721-33.237-22.906-4.94L372.6,687.528a.365.365,0,0,0-.481.427l4.782,20L406.093,790.6l19.763-5.39Z" transform="translate(-119.089 -220.03)" fill="#edece1"/>
      <path id="Path_979" data-name="Path 979" d="M351.14,778.6c-1.348,0-22.008,4.491-22.008,4.491l-22.008,5.39-32.788,2.695-18.864.9-25.6-18.415,67.821-132.049L317.9,647.9l.449,26.05Z" transform="translate(-73.568 -205.343)" fill="#edece1"/>
      <path id="Path_980" data-name="Path 980" d="M291.059,581.765l-5.839,18.415L246.144,578.4l-44.016-33.911,19.762-21.109Z" transform="translate(-64.689 -167.502)" fill="#edece1"/>
      <path id="Path_981" data-name="Path 981" d="M106.426,344.367,87.562,368.621l-7.635,45.813L146.4,454.857l22.008,17.966,8.983-12.127,5.389,2.246,3.594-10.331-48.508-26.949-16.394-49.63Z" transform="translate(-25.58 -110.211)" fill="#edece1"/>
      <path id="Path_982" data-name="Path 982" d="M147.157,501.908l-3.818,31.216v8.983l23.132,4.267L175,540.758l12.127-11.228Z" transform="translate(-45.874 -160.631)" fill="#edece1"/>
      <path id="Path_983" data-name="Path 983" d="M280.513,282.6l2.1,46.711L285.6,333.8l68.869-1.8-5.689-14.672L338.6,289.485,327.6,273.918a3.289,3.289,0,0,0-3.42-1.308Z" transform="translate(-89.776 -87.22)" fill="#edece1"/>
      <path id="Path_984" data-name="Path 984" d="M626.352,611.877l-.592-8.287,6.288-48.508,63.18,11.079L662.89,612.872l-3.893.9-32.541-1.791a.111.111,0,0,1-.1-.1" transform="translate(-200.269 -177.649)" fill="#f7f6f0"/>
      <path id="Path_985" data-name="Path 985" d="M671.994,528.22l-1.647,16.918,39.75,6.737,3.892-21.11-10.18-1.946-11.678.3Z" transform="translate(-214.538 -169.052)" fill="#f7f6f0"/>
      <path id="Path_986" data-name="Path 986" d="M659.508,497.76l1.894-12.446a4.374,4.374,0,0,0-.375-2.541l-1.362-2.86a4.376,4.376,0,0,0-3.494-2.472L630.164,474.7l3.893-25.751,54.2,17.068-9.282,33.237Z" transform="translate(-201.678 -143.683)" fill="#f7f6f0"/>
      <path id="Path_987" data-name="Path 987" d="M717.831,475.816l20.062,8.085-2.1,39.226-5.569,9a.873.873,0,0,1-1.606-.586l2.984-20.388-13.774-3.294-9.282.3Z" transform="translate(-226.765 -152.281)" fill="#f7f6f0"/>
      <path id="Path_988" data-name="Path 988" d="M655.933,526.775l-17.667-1.2-1.5,16.169,17.666,2.1Z" transform="translate(-203.792 -168.206)" fill="#f7f6f0"/>
      <path id="Path_989" data-name="Path 989" d="M633.26,499.17l1.8-15.57-36.83-3.893-9.881-3.593-3.893-22.757-19.462,7.785,4.192,13.774,4.192,30.842,20.361-2.695,20.96-4.791Z" transform="translate(-180.82 -145.093)" fill="#f7f6f0"/>
      <path id="Path_990" data-name="Path 990" d="M601.54,449.447l3.893,22.158,10.48.6L621,446.752Z" transform="translate(-192.517 -142.979)" fill="#f7f6f0"/>
      <path id="Path_991" data-name="Path 991" d="M713.678,448.973l-2.791-7.1-66.773-50.6-3.593,4.491L636.329,423.6l63.779,21.559,11.806,5.471a1.305,1.305,0,0,0,1.764-1.661" transform="translate(-203.651 -125.221)" fill="#f7f6f0"/>
      <path id="Path_992" data-name="Path 992" d="M620.914,397.431l-4.192,27.248-21.559,3.893-11.678-18.864,8.684-1.2Z" transform="translate(-186.739 -127.194)" fill="#f7f6f0"/>
      <path id="Path_993" data-name="Path 993" d="M622.591,376.56l-1.8,2.47-26.949,10.106-11.9-30.99,4.042-.9,11,.449Z" transform="translate(-186.246 -114.334)" fill="#f7f6f0"/>
      <path id="Path_994" data-name="Path 994" d="M567.212,360.55l-17.966,5.165.674,27.623,15.5.674,13.025-2.47Z" transform="translate(-175.781 -115.391)" fill="#f7f6f0"/>
      <path id="Path_995" data-name="Path 995" d="M579.168,436.908l-10.106-19.762L562.1,416.7l-9.881.9.9,18.415,5.39,8.983Z" transform="translate(-176.733 -133.36)" fill="#f7f6f0"/>
      <path id="Path_996" data-name="Path 996" d="M542.482,452.036l6.962,13.25,2.919,10.779,3.818,28.97-17.292-1.123-.674-22.233L528.109,465.51Z" transform="translate(-169.016 -144.67)" fill="#f7f6f0"/>
      <path id="Path_997" data-name="Path 997" d="M519.957,474.165l10.019,14.922a3.253,3.253,0,0,1,.551,1.759l.321,20.036h-6.288l-5.952-24.029-4.042-9.769Z" transform="translate(-164.682 -151.752)" fill="#f7f6f0"/>
      <path id="Path_998" data-name="Path 998" d="M497.393,427.107l5.614,22.682s3.593,6.961,4.267,6.737,6.737-3.144,6.737-3.144l16.843-16.618-2.022-18.415Z" transform="translate(-159.186 -133.888)" fill="#f7f6f0"/>
      <path id="Path_999" data-name="Path 999" d="M503.669,372.374l.224,11,1.8,3.818,2.7,14.822,22.682-4.267-.449-27.623Z" transform="translate(-161.195 -118.456)" fill="#f7f6f0"/>
      <path id="Path_1000" data-name="Path 1000" d="M456.572,375.571l-1.123,39.076,11.678-2.47,8.759-3.818,7.635-1.572s-2.246-8.534-1.8-9.881,2.47-7.411,2.47-7.411V373.1Z" transform="translate(-145.762 -119.408)" fill="#f7f6f0"/>
      <path id="Path_1001" data-name="Path 1001" d="M420.647,414.171l.075-39.375-16.019.3-2.458.41a2.336,2.336,0,0,1-1.977-.6l-.706-.66a2.333,2.333,0,0,1-.74-1.6l-.108-2.49-28.745-1.347,1.5,25.3,9.728.406a1.016,1.016,0,0,1,0,2.03l-9.282.409-4.641,1.8-2.7.449-5.24,5.988,2.545,13.474s29.195-1.5,31.441-1.2,27.323-3.294,27.323-3.294" transform="translate(-115.003 -118.033)" fill="#f7f6f0"/>
      <path id="Path_1002" data-name="Path 1002" d="M587.068,618.885l1.286-3.858a5.529,5.529,0,0,1,3.9-3.615l4.242-1.06,3.593-3.594-.449-18.415,8.983-57.042-34.584,4.491-8.983,59.288-3.593,27.847,3.144,8.534Z" transform="translate(-179.692 -170.038)" fill="#f7f6f0"/>
      <path id="Path_1003" data-name="Path 1003" d="M289.761,370.551l2.1,13.474,13.437,12.239,6.2-2.136a2.079,2.079,0,0,1,1.3-.019l20.343,6.331a1.587,1.587,0,0,0,1.692-.5l3.9-4.694A3.486,3.486,0,0,1,341.1,394l3.5-.318-1.684-25.039Z" transform="translate(-92.735 -117.981)" fill="#f7f6f0"/>
      <path id="Path_1004" data-name="Path 1004" d="M271.158,389.945,248.1,395.634l-1.5,3.593s36.83,42.22,38.027,41.022,38.327-14.073,38.327-14.073L319.068,412.1,300.2,409.408l-6.863,1.271a2.364,2.364,0,0,1-2.1-.653Z" transform="translate(-78.924 -124.798)" fill="#f7f6f0"/>
      <path id="Path_1005" data-name="Path 1005" d="M363.372,445.078l7.486,38.027-5.667,4.318a2.2,2.2,0,0,0-.8,1.231l-1.741,7.21a2.2,2.2,0,0,0,.12,1.389l5.337,12.318a1.437,1.437,0,0,0,2.3.48l5.823-5.426a2.9,2.9,0,0,1,2.182-.772l15.809,1.109,44.016-24.253,22.458-15.57L449.009,433.1,421.76,443.281l-12.875,2.1Z" transform="translate(-116.042 -138.61)" fill="#f7f6f0"/>
      <path id="Path_1006" data-name="Path 1006" d="M243.522,501.565l49.406,40.723L305.2,555.762l22.458-34.135-5.09-9.283-1.941-16.664a2.388,2.388,0,0,1,.912-2.164l6.343-4.9-6.213-35.258-20.96,3.893-21.859,11.977-9.582-12.576Z" transform="translate(-77.937 -145.093)" fill="#f7f6f0"/>
      <path id="Path_1007" data-name="Path 1007" d="M524.136,522l-30.842-4.491L483,485.394,439.7,515.412,428.917,522.6l11.378,15.57,3.594,5.988,21.559,8.384,20.96,11.378h33.236Z" transform="translate(-137.271 -155.346)" fill="#f7f6f0"/>
      <path id="Path_1008" data-name="Path 1008" d="M490.951,620.78l4.941-34.809s-30.767.9-34.659-.524c-2.813-1.028-45.738-20.137-45.738-20.137l-4.267-7.186L399.55,541.431l-13.568,2.021a3.684,3.684,0,0,1-1.012.009l-8.776-1.132-11.453,12.651-11.678,21.783,49.182,21.859,23.355,6.887Z" transform="translate(-112.995 -173.28)" fill="#f7f6f0"/>
      <path id="Path_1009" data-name="Path 1009" d="M485.019,656.5l-4.491-12.127-56.593-14.148L380.817,616.3l-39.75-17.292-10.555,19.538-.9,6.513,139.46,40.872,9.207-2.47Z" transform="translate(-105.49 -191.707)" fill="#f7f6f0"/>
      <path id="Path_1010" data-name="Path 1010" d="M448.248,32.488,447.051,25,464.268,0H453.189l-1.348,4.641L422.5,30.392,387.464,49.855l-3.893,2.4L361.114,75.008,353.628,78l-5.988,13.474-6.288,6.288-31.44,10.779-13.475,20.062-8.983,13.773-14.971,4.492-2.995-5.09-5.988-.9-20.96,3.892-1.2-4.791h-3.294l-8.085,5.989-26.949,5.988-2.695-6.587-11.378.3-7.486,5.989-21.26,7.785L96.118,177.413,50.9,182.8l-3.893,7.186L53,229.813,44.316,239.1l-23.954,8.683L0,252.57v14.073l21.559-.3,17.966-9.881s1.8-3.893,2.4-4.791,8.684-3.893,8.684-3.893l23.954-27.547,15.57-8.085,10.48-3.294,12.876-5.091,11.079-10.779,8.684-16.469,14.971-11.079,11.977-3.294,50.9-6.588,77.254-5.389,6.737-3.144L324,170.9l24.536,25.978,10.779,2.4,40.124-18.265,20.062-2.995-12.277-2.995-49.107,21.859-13.905-10.284,7.243-21.156-1.084-24.5a1.031,1.031,0,0,0-2.06.046v24.225l-6.288,19.762-15.5-16.843L298.907,142.3l11.229-20.211,10.256-8.16,16.169-4.492,11.378-7.187,15.271-5.988,3.294-5.09,28.745-17.966s8.684-1.2,10.181-1.5,21.559-11.079,21.559-11.079l12.576,3.594,7.186-1.5,4.791-2.995,2.695-6.587V42.07l-2.4-6.288Z" fill="#edece1"/>
      <path id="Path_1011" data-name="Path 1011" d="M.449,497.608l12.127,1.348,23.8-3.594-.9-39.974,7.186-27.4,6.288-31.441-25.6,12.577L10.78,410.473,0,410.923Z" transform="translate(0 -126.912)" fill="#edece1"/>
    </g>
  </g>
  <g id="Group_1305" data-name="Group 1305">
    <g id="Group_1304" data-name="Group 1304" clip-path="url(#clip-path)">
      <path id="Path_1012" data-name="Path 1012" d="M271.271,464.13a10.273,10.273,0,0,0-1.062-.049,9.953,9.953,0,0,0-1.061.049c-8.024.646-12.6,9.237-9.642,16.413a12.046,12.046,0,0,0,1.518,2.567l9.186,12.35,9.184-12.362a12.05,12.05,0,0,0,1.505-2.546c2.973-7.177-1.6-15.776-9.628-16.422" transform="translate(-82.763 -148.525)" fill="#ad7f8f"/>
      <path id="Path_1013" data-name="Path 1013" d="M273.479,472.783a.424.424,0,0,0-.424.424v1.485a.414.414,0,1,1-.827,0V473.28a.5.5,0,0,0-.995,0v1.412a.414.414,0,1,1-.828,0v-1.485a.423.423,0,1,0-.847,0v2.346a2.263,2.263,0,0,0,1.63,2.187v6.507a.542.542,0,0,0,1.085,0v-6.51a2.167,2.167,0,0,0,1.63-2.094v-2.436a.424.424,0,0,0-.424-.424" transform="translate(-86.27 -151.31)" fill="#edece1"/>
      <path id="Path_1014" data-name="Path 1014" d="M278.262,475.812v1.922h1.308v6.481a.542.542,0,1,0,1.084,0V472.683c-1.728,0-2.392,1.4-2.392,3.128" transform="translate(-89.055 -151.278)" fill="#edece1"/>
      <path id="Path_1015" data-name="Path 1015" d="M387.818,195.882a10.281,10.281,0,0,0-1.062-.049,9.961,9.961,0,0,0-1.061.049c-8.024.646-12.6,9.237-9.642,16.413a12.031,12.031,0,0,0,1.518,2.568l9.186,12.35,9.184-12.362a12.049,12.049,0,0,0,1.505-2.546c2.973-7.177-1.6-15.776-9.628-16.422" transform="translate(-120.063 -62.675)" fill="#ad7f8f"/>
      <path id="Path_1016" data-name="Path 1016" d="M390.025,204.535a.424.424,0,0,0-.424.424v1.485a.414.414,0,1,1-.828,0v-1.412a.5.5,0,0,0-.995,0v1.412a.414.414,0,1,1-.828,0v-1.485a.423.423,0,1,0-.846,0V207.3a2.263,2.263,0,0,0,1.63,2.187V216a.542.542,0,0,0,1.084,0v-6.51a2.166,2.166,0,0,0,1.63-2.094v-2.436a.424.424,0,0,0-.424-.424" transform="translate(-123.569 -65.46)" fill="#edece1"/>
      <path id="Path_1017" data-name="Path 1017" d="M394.809,207.563v1.922h1.308v6.481a.542.542,0,1,0,1.084,0V204.435c-1.728,0-2.392,1.4-2.392,3.128" transform="translate(-126.355 -65.428)" fill="#edece1"/>
      <path id="Path_1018" data-name="Path 1018" d="M688.936,260.716a10.291,10.291,0,0,0-1.062-.049,9.967,9.967,0,0,0-1.061.049c-8.024.646-12.6,9.237-9.642,16.413a12.049,12.049,0,0,0,1.518,2.567l9.185,12.35,9.184-12.362a12.045,12.045,0,0,0,1.505-2.546c2.973-7.177-1.6-15.776-9.628-16.422" transform="translate(-216.433 -83.424)" fill="#829b9b"/>
      <path id="Path_1019" data-name="Path 1019" d="M695.4,271.058a2.929,2.929,0,0,1,1.317,1.094,3.343,3.343,0,0,1,0,3.379,2.919,2.919,0,0,1-1.317,1.1,4.923,4.923,0,0,1-2.017.382H691.37v4.278h-1.654V270.677h3.665a4.934,4.934,0,0,1,2.017.381m-.451,4.1a1.815,1.815,0,0,0,0-2.621,2.538,2.538,0,0,0-1.641-.458H691.37v3.537H693.3a2.547,2.547,0,0,0,1.641-.458" transform="translate(-220.737 -86.628)" fill="#edece1"/>
      <g id="Group_1429" data-name="Group 1429">
        <path id="Path_1020" data-name="Path 1020" d="M505.876,391.359a10.274,10.274,0,0,0-1.062-.049,9.953,9.953,0,0,0-1.061.049c-8.024.646-12.6,9.237-9.642,16.413a12.05,12.05,0,0,0,1.518,2.568l9.186,12.35L514,410.327a12.049,12.049,0,0,0,1.505-2.546c2.973-7.177-1.6-15.776-9.627-16.422" transform="translate(-157.847 -125.234)" fill="#829b9b"/>
        <path id="Path_1021" data-name="Path 1021" d="M512.338,401.7a2.93,2.93,0,0,1,1.317,1.094,3.343,3.343,0,0,1,0,3.379,2.92,2.92,0,0,1-1.317,1.1,4.925,4.925,0,0,1-2.017.382H508.31v4.278h-1.654V401.321h3.665a4.936,4.936,0,0,1,2.017.381m-.452,4.1a1.815,1.815,0,0,0,0-2.621,2.538,2.538,0,0,0-1.641-.458H508.31v3.537h1.934a2.542,2.542,0,0,0,1.641-.458" transform="translate(-162.15 -128.439)" fill="#edece1"/>
      </g>
      <g id="Group_1428" data-name="Group 1428">
        <path id="Path_1022" data-name="Path 1022" d="M534.011,403.329a10.28,10.28,0,0,0-1.062-.049,9.957,9.957,0,0,0-1.061.049c-8.024.646-12.6,9.237-9.642,16.413a12.043,12.043,0,0,0,1.518,2.568l9.186,12.35,9.184-12.362a12.044,12.044,0,0,0,1.505-2.546c2.973-7.177-1.6-15.776-9.628-16.422" transform="translate(-166.851 -129.066)" fill="#ad7f60"/>
        <path id="Path_1023" data-name="Path 1023" d="M540.09,424.155h-7.645l-.728-5.846h9.1Z" transform="translate(-170.172 -133.875)" fill="#edece1"/>
        <path id="Path_1024" data-name="Path 1024" d="M538.594,414.223a1.023,1.023,0,0,1,.915,1l.167,1.539h-6.038l.167-1.539a1.023,1.023,0,0,1,.915-1Zm0-.63h-3.873a1.643,1.643,0,0,0-1.542,1.558l-.243,2.236h7.441l-.243-2.236a1.642,1.642,0,0,0-1.541-1.558" transform="translate(-170.562 -132.367)" fill="#edece1"/>
      </g>
      <path id="Path_1025" data-name="Path 1025" d="M591.748,409.92a10.279,10.279,0,0,0-1.062-.049,9.957,9.957,0,0,0-1.061.049c-8.024.646-12.6,9.237-9.642,16.413A12.055,12.055,0,0,0,581.5,428.9l9.185,12.35,9.184-12.362a12.048,12.048,0,0,0,1.505-2.546c2.973-7.177-1.6-15.776-9.628-16.422" transform="translate(-185.329 -131.175)" fill="#ad7f60"/>
      <path id="Path_1026" data-name="Path 1026" d="M597.827,430.746h-7.645l-.728-5.846h9.1Z" transform="translate(-188.649 -135.985)" fill="#edece1"/>
      <path id="Path_1027" data-name="Path 1027" d="M596.331,420.814a1.023,1.023,0,0,1,.915,1l.167,1.539h-6.038l.167-1.539a1.023,1.023,0,0,1,.915-1Zm0-.63h-3.873a1.643,1.643,0,0,0-1.541,1.558l-.243,2.236h7.441l-.243-2.236a1.642,1.642,0,0,0-1.541-1.558" transform="translate(-189.04 -134.476)" fill="#edece1"/>
      <g id="Group_1430" data-name="Group 1430">
        <path id="Path_1028" data-name="Path 1028" d="M473.179,570.133a10.273,10.273,0,0,0-1.062-.049,9.952,9.952,0,0,0-1.061.049c-8.024.646-12.6,9.237-9.642,16.413a12.04,12.04,0,0,0,1.518,2.568l9.186,12.35L481.3,589.1a12.055,12.055,0,0,0,1.505-2.546c2.973-7.177-1.6-15.776-9.628-16.422" transform="translate(-147.382 -182.449)" fill="#ad7f8f"/>
        <path id="Path_1029" data-name="Path 1029" d="M480.042,579.454l-4.657,5.245-4.658-5.245Z" transform="translate(-150.652 -185.449)" fill="#edece1"/>
        <rect id="Rectangle_526" data-name="Rectangle 526" width="0.97" height="8.344" transform="translate(324.247 397.582)" fill="#edece1"/>
        <path id="Path_1030" data-name="Path 1030" d="M474.244,596.138h0a.485.485,0,0,1,.485-.485h3.562a.485.485,0,1,1,0,.97h-3.562a.485.485,0,0,1-.485-.485" transform="translate(-151.777 -190.633)" fill="#edece1"/>
      </g>
      <path id="Path_1031" data-name="Path 1031" d="M166.1,297.176a10.286,10.286,0,0,0-1.063-.049,9.94,9.94,0,0,0-1.061.049c-8.025.646-12.6,9.237-9.642,16.413a12.046,12.046,0,0,0,1.518,2.568l9.186,12.35,9.184-12.362a12.02,12.02,0,0,0,1.506-2.546c2.972-7.177-1.6-15.776-9.628-16.422" transform="translate(-49.105 -95.093)" fill="#ad7f60"/>
      <path id="Path_1032" data-name="Path 1032" d="M168.2,304.163a.66.66,0,0,0-.67,0l-5,5.062h.929v6.121h8.983v-6.121h.929Zm2.128,8.849h-.949v-2.676l-1.15,2.323h-.566l-1.144-2.323v2.676h-.949V308.76h1.284l1.095,2.336,1.1-2.336h1.277Z" transform="translate(-52.016 -97.316)" fill="#edece1"/>
      <g id="Group_1432" data-name="Group 1432">
        <path id="Path_1033" data-name="Path 1033" d="M1064.043,206.981a10.3,10.3,0,0,0-1.062-.049,9.966,9.966,0,0,0-1.061.049c-8.024.646-12.6,9.237-9.642,16.413a12.03,12.03,0,0,0,1.517,2.568l9.186,12.35,9.184-12.362a12.045,12.045,0,0,0,1.505-2.546c2.972-7.177-1.6-15.776-9.627-16.422" transform="translate(-336.482 -66.227)" fill="#ad7f60"/>
        <path id="Path_1034" data-name="Path 1034" d="M1071.568,222.077l-1.472-2.145a.058.058,0,0,0-.1,0l-1.473,2.145a.059.059,0,0,0,.049.092h.77a3.731,3.731,0,0,1-3,3.013v-7.416a1.519,1.519,0,1,0-1.331,0v7.416a3.731,3.731,0,0,1-3-3.013h.711a.059.059,0,0,0,.048-.092l-1.472-2.145a.059.059,0,0,0-.1,0l-1.472,2.145a.059.059,0,0,0,.048.092h.884a5.058,5.058,0,0,0,10.033,0h.824a.058.058,0,0,0,.048-.092m-5.889-6.084a.413.413,0,1,1-.413.413.414.414,0,0,1,.413-.413" transform="translate(-339.153 -68.773)" fill="#edece1"/>
      </g>
      <path id="Path_1035" data-name="Path 1035" d="M617.145,34.177a10.279,10.279,0,0,0-1.062-.049,9.959,9.959,0,0,0-1.061.049c-8.024.646-12.6,9.237-9.642,16.413a12.051,12.051,0,0,0,1.518,2.568l9.186,12.35,9.184-12.362a12.047,12.047,0,0,0,1.506-2.546c2.973-7.177-1.6-15.776-9.628-16.422" transform="translate(-193.457 -10.922)" fill="#ad7f60"/>
      <path id="Path_1036" data-name="Path 1036" d="M622.383,46.659V45.3h-6.917v1.357h-2.1v7.065h11.125V46.659Z" transform="translate(-196.301 -14.499)" fill="#edece1"/>
      <path id="Path_1037" data-name="Path 1037" d="M623.185,50.766a2.779,2.779,0,1,1-2.779-2.779,2.779,2.779,0,0,1,2.779,2.779" transform="translate(-197.666 -15.358)" fill="#ad7f60"/>
      <path id="Path_1038" data-name="Path 1038" d="M330.5,540.685a10.272,10.272,0,0,0-1.062-.049,9.951,9.951,0,0,0-1.061.049c-8.024.646-12.6,9.237-9.642,16.413a12.044,12.044,0,0,0,1.518,2.568l9.186,12.35,9.184-12.362a12.049,12.049,0,0,0,1.505-2.546c2.973-7.177-1.6-15.776-9.628-16.422" transform="translate(-101.719 -173.026)" fill="#ad7f60"/>
      <path id="Path_1039" data-name="Path 1039" d="M335.739,553.166V551.81h-6.917v1.356h-2.1v7.065h11.125v-7.065Z" transform="translate(-104.563 -176.602)" fill="#edece1"/>
      <path id="Path_1040" data-name="Path 1040" d="M336.54,557.273a2.779,2.779,0,1,1-2.779-2.779,2.779,2.779,0,0,1,2.779,2.779" transform="translate(-105.928 -177.461)" fill="#ad7f60"/>
      <g id="Group_1431" data-name="Group 1431">
        <path id="Path_1041" data-name="Path 1041" d="M642.073,546.081a10.271,10.271,0,0,0-1.062-.049,9.95,9.95,0,0,0-1.061.049c-8.024.646-12.6,9.237-9.642,16.413a12.05,12.05,0,0,0,1.518,2.568l9.186,12.35,9.184-12.362A12.05,12.05,0,0,0,651.7,562.5c2.973-7.177-1.6-15.776-9.628-16.422" transform="translate(-201.436 -174.752)" fill="#ad7f60"/>
        <path id="Path_1042" data-name="Path 1042" d="M644.17,553.068a.66.66,0,0,0-.67,0l-5,5.062h.929v6.121h8.983v-6.121h.929Zm2.128,8.849h-.949v-2.676l-1.15,2.323h-.566l-1.144-2.323v2.676h-.949v-4.252h1.284L643.92,560l1.1-2.336H646.3Z" transform="translate(-204.346 -176.977)" fill="#edece1"/>
      </g>
      <g id="Group_1427" data-name="Group 1427">
        <path id="Path_1043" data-name="Path 1043" d="M521.193,335.366a10.274,10.274,0,0,0-1.062-.049,9.949,9.949,0,0,0-1.061.049c-8.024.646-12.6,9.237-9.642,16.413a12.046,12.046,0,0,0,1.518,2.568l9.186,12.35,9.184-12.362a12.047,12.047,0,0,0,1.505-2.546c2.973-7.177-1.6-15.776-9.628-16.422" transform="translate(-162.749 -107.314)" fill="#ad7f60"/>
        <path id="Path_1044" data-name="Path 1044" d="M523.29,342.353a.66.66,0,0,0-.67,0l-5,5.062h.929v6.121h8.983v-6.121h.929Zm2.128,8.849h-.949v-2.676l-1.15,2.323h-.566l-1.144-2.323V351.2h-.948V346.95h1.284l1.095,2.336,1.1-2.336h1.277Z" transform="translate(-165.659 -109.539)" fill="#edece1"/>
      </g>
      <path id="Path_1045" data-name="Path 1045" d="M625.853,438.516l-10.529,14.173-10.456-14.057a13.765,13.765,0,0,1-1.966-3.53c-2.885-8.047,2.291-17.387,11.212-18.105a11.464,11.464,0,0,1,1.21-.056,11.815,11.815,0,0,1,1.21.056c9.23.743,14.451,10.713,10.873,18.935a13.29,13.29,0,0,1-1.553,2.584" transform="translate(-192.697 -133.438)" fill="#4b4b49"/>
      <path id="Path_1046" data-name="Path 1046" d="M624.552,433.935a5.683,5.683,0,1,1-5.684-5.684,5.684,5.684,0,0,1,5.684,5.684" transform="translate(-196.244 -137.058)" fill="#f7f6f0"/>
      <g id="Group_1426" data-name="Group 1426">
        <path id="Path_1047" data-name="Path 1047" d="M422.079,251.581l-10.529,14.173L401.094,251.7a13.76,13.76,0,0,1-1.966-3.53c-2.885-8.047,2.291-17.387,11.212-18.105a11.449,11.449,0,0,1,1.21-.056,11.8,11.8,0,0,1,1.21.056c9.23.743,14.451,10.713,10.872,18.935a13.246,13.246,0,0,1-1.552,2.584" transform="translate(-127.48 -73.611)" fill="#4b4b49"/>
        <path id="Path_1048" data-name="Path 1048" d="M420.778,247a5.683,5.683,0,1,1-5.684-5.683A5.684,5.684,0,0,1,420.778,247" transform="translate(-131.028 -77.23)" fill="#f7f6f0"/>
      </g>
    </g>
  </g>
</svg>
