<svg xmlns="http://www.w3.org/2000/svg" width="33" height="31.68" viewBox="0 0 33 31.68">
  <g id="Group_1416" data-name="Group 1416" transform="translate(-290)">
    <g id="Path_1132" data-name="Path 1132" transform="translate(290 7.68)" fill="none">
      <path d="M0,0,16.74-7.68,33,0V24H0Z" stroke="none"/>
      <path d="M 16.73408317565918 -6.576656341552734 L 1 0.6414480209350586 L 1 22.99999618530273 L 32 22.99999618530273 L 32 0.6336145401000977 L 16.73408317565918 -6.576656341552734 M 16.74023056030273 -7.679683685302734 L 33 -3.814697265625e-06 L 33 23.99999618530273 L 0 23.99999618530273 L 0 -3.814697265625e-06 L 16.74023056030273 -7.679683685302734 Z" stroke="none" fill="#222221"/>
    </g>
    <g id="Path_1133" data-name="Path 1133" transform="translate(299.5 8.68)" fill="none">
      <path d="M7,0a7,7,0,0,1,7,7,7.344,7.344,0,0,1-1.333,3.558C10.791,13.677,6.837,17.186,7,17.35c.219.219-7-6.484-7-10.35A7,7,0,0,1,7,0Z" stroke="none"/>
      <path d="M 7 0.9999961853027344 C 3.691590309143066 0.9999961853027344 1 3.691586494445801 1 6.999997138977051 C 1 8.277727127075195 2.121760368347168 10.34975624084473 4.158639907836914 12.83439636230469 C 5.201308250427246 14.10626792907715 6.243619441986084 15.19849491119385 6.917150497436523 15.87473678588867 C 7.04592227935791 15.73881340026855 7.190083980560303 15.58820247650146 7.349219799041748 15.42194652557373 C 8.58253002166748 14.13343715667725 10.64671993255615 11.97686672210693 11.81132984161377 10.04031753540039 C 12.62228965759277 8.699856758117676 13 7.733777046203613 13 6.999997138977051 C 13 3.691586494445801 10.30840969085693 0.9999961853027344 7 0.9999961853027344 M 7 -3.814697265625e-06 C 10.86598968505859 -3.814697265625e-06 14 3.134006500244141 14 6.999997138977051 C 14 7.989696502685547 13.52686023712158 9.136556625366211 12.66693019866943 10.55794715881348 C 10.79113960266113 13.67708683013916 6.836699962615967 17.18631744384766 7 17.34960746765137 C 7.219711780548096 17.56933975219727 0 10.86592674255371 0 6.999997138977051 C 0 3.134006500244141 3.134010314941406 -3.814697265625e-06 7 -3.814697265625e-06 Z" stroke="none" fill="#222221"/>
    </g>
    <g id="Ellipse_47" data-name="Ellipse 47" transform="translate(304 12.68)" fill="none" stroke="#222221" stroke-width="1">
      <circle cx="2.5" cy="2.5" r="2.5" stroke="none"/>
      <circle cx="2.5" cy="2.5" r="2" fill="none"/>
    </g>
  </g>
</svg>
