<svg xmlns="http://www.w3.org/2000/svg" width="37" height="46.651" viewBox="0 0 37 46.651">
  <g id="Group_1352" data-name="Group 1352" transform="translate(-941.5 -2286.349)">
    <g id="Path_1096" data-name="Path 1096" transform="translate(941.5 2286.349)" fill="none">
      <path d="M18.5,0A18.5,18.5,0,0,1,37,18.5c0,10.217-18.022,28.022-18.5,28.15S0,28.717,0,18.5A18.5,18.5,0,0,1,18.5,0Z" stroke="none"/>
      <path d="M 18.5 2.999992370605469 C 14.35980033874512 2.999992370605469 10.46740913391113 4.612274169921875 7.539840698242188 7.539844512939453 C 4.612281799316406 10.46740341186523 3 14.35980224609375 3 18.50000381469727 C 3 19.69353485107422 3.385459899902344 21.85064315795898 5.221809387207031 25.3492431640625 C 6.540010452270508 27.86066436767578 8.397209167480469 30.67679405212402 10.74183082580566 33.71939468383789 C 13.63225746154785 37.47027969360352 16.62035179138184 40.71799087524414 18.45230484008789 42.5703239440918 C 20.25692558288574 40.73306274414062 23.18361282348633 37.57115173339844 26.09637069702148 33.83715438842773 C 28.48897933959961 30.76994323730469 30.38248062133789 27.93735313415527 31.72427940368652 25.41808319091797 C 33.60517883300781 21.88662338256836 34 19.70679473876953 34 18.50000381469727 C 34 14.35980224609375 32.38771820068359 10.46740341186523 29.46015930175781 7.539844512939453 C 26.53258895874023 4.612274169921875 22.64019966125488 2.999992370605469 18.5 2.999992370605469 M 18.5 -7.62939453125e-06 C 28.71726989746094 -7.62939453125e-06 37 8.282733917236328 37 18.50000381469727 C 37 28.71726417541504 18.97805976867676 46.52229309082031 18.5 46.65039443969727 C 18.02171325683594 46.77846527099609 -3.814697265625e-06 28.71726989746094 0 18.50000381469727 C 0 8.282733917236328 8.282730102539062 -7.62939453125e-06 18.5 -7.62939453125e-06 Z" stroke="none" fill="#222221"/>
    </g>
    <g id="Ellipse_37" data-name="Ellipse 37" transform="translate(954.5 2297)" fill="none" stroke="#222221" stroke-width="3">
      <circle cx="5.5" cy="5.5" r="5.5" stroke="none"/>
      <circle cx="5.5" cy="5.5" r="4" fill="none"/>
    </g>
  </g>
</svg>
