<svg id="Group_995" data-name="Group 995" xmlns="http://www.w3.org/2000/svg" width="52.723" height="39.941" viewBox="0 0 52.723 39.941">
  <path id="Path_731" data-name="Path 731" d="M1799.878,6485.982a11.77,11.77,0,0,1,6.122,1.428,12.463,12.463,0,0,1,3.912,3.645,12.845,12.845,0,0,1,2.381,5.547,30.721,30.721,0,0,1,.51,4.914,24.784,24.784,0,0,1-4.251,14.105q-4.255,6.341-13.266,10.3l-1.531-2.854a22.855,22.855,0,0,0,9.1-6.5q3.828-4.437,3.827-9.034a9.873,9.873,0,0,0-.51-3.329,10.13,10.13,0,0,1-6.292,2.06,11.562,11.562,0,0,1-7.652-2.693,9.169,9.169,0,0,1-3.233-7.449,9.289,9.289,0,0,1,3.233-7.291A11.18,11.18,0,0,1,1799.878,6485.982Zm28.912,0a11.786,11.786,0,0,1,6.124,1.428,12.472,12.472,0,0,1,3.91,3.645,12.866,12.866,0,0,1,2.382,5.547,30.864,30.864,0,0,1,.509,4.914,24.775,24.775,0,0,1-4.252,14.105q-4.252,6.341-13.264,10.3l-1.531-2.854a22.866,22.866,0,0,0,9.1-6.5q3.826-4.437,3.825-9.034a9.873,9.873,0,0,0-.51-3.329,10.13,10.13,0,0,1-6.292,2.06,11.556,11.556,0,0,1-7.652-2.693,9.168,9.168,0,0,1-3.231-7.449,9.288,9.288,0,0,1,3.231-7.291A11.174,11.174,0,0,1,1828.791,6485.982Z" transform="translate(-1788.993 -6485.982)" fill="#222221"/>
</svg>
