<svg xmlns="http://www.w3.org/2000/svg" width="53.267" height="50.224" viewBox="0 0 53.267 50.224">
  <g id="Group_814" data-name="Group 814" transform="translate(0.691 0.691)">
    <g id="Group_813" data-name="Group 813" transform="translate(25.157 9.834)">
      <g id="Group_812" data-name="Group 812">
        <g id="Group_811" data-name="Group 811">
          <g id="Group_810" data-name="Group 810">
            <g id="Group_809" data-name="Group 809">
              <path id="Path_688" data-name="Path 688" d="M2858.7,458.207a24.234,24.234,0,0,0,1.611,3.484,24.794,24.794,0,0,0,2.4,3.041c2.038,2.336,4.154,4.746,4.154,7.869,0,.066-.009.131-.009.189s.009.131.009.2c0,3.123-2.116,5.533-4.154,7.861a25.088,25.088,0,0,0-2.4,3.05,24.232,24.232,0,0,0-1.611,3.484" transform="translate(-2858.702 -458.207)" fill="none" stroke="#222221" stroke-width="1.382"/>
            </g>
          </g>
        </g>
      </g>
    </g>
    <ellipse id="Ellipse_11" data-name="Ellipse 11" cx="25.942" cy="24.421" rx="25.942" ry="24.421" transform="translate(0)" fill="none" stroke="#222221" stroke-width="1.382"/>
  </g>
</svg>
