<svg id="Group_701" data-name="Group 701" xmlns="http://www.w3.org/2000/svg" width="174" height="191" viewBox="0 0 174 191">
  <g id="Group_700" data-name="Group 700">
    <path id="Path_657" data-name="Path 657" d="M3427.353,4573.24c-.093.216-.216.373-.308.56s-.216.373-.309.559c-5.864,10.263-16.85,14.459-27.5,18.472a62.53,62.53,0,0,0-24.565,14.336c-8.8,7.276-17.867,14.833-29.626,14.833-.247,0-.494-.031-.709-.031-.248,0-.493.031-.741.031-11.758,0-20.83-7.557-29.6-14.833a62.912,62.912,0,0,0-24.6-14.336c-10.615-4.013-21.633-8.181-27.5-18.472a4.69,4.69,0,0,1-.279-.559,5.249,5.249,0,0,1-.339-.528c-5.956-10.417-3.949-22.235-2.037-33.647a93.044,93.044,0,0,0,1.7-14.3,95.521,95.521,0,0,0-1.482-14.338c-1.759-11.442-3.549-23.291,2.531-33.615l.524-.808c6.172-9.517,16.7-13.339,26.91-17.013a91.519,91.519,0,0,0,13.178-5.566,88.408,88.408,0,0,0,11.51-8.52c8.673-7.121,17.622-14.46,29.164-14.46h2.932c11.418.062,20.244,7.432,28.761,14.584a82.453,82.453,0,0,0,11.419,8.615,84.719,84.719,0,0,0,13.146,5.566c9.661,3.515,19.659,7.12,25.769,15.58l1.42,2.209.988,1.833c4.752,9.952,3.086,20.959,1.45,31.595a95.479,95.479,0,0,0-1.481,14.338,93.184,93.184,0,0,0,1.7,14.3C3431.3,4551.036,3433.31,4562.854,3427.353,4573.24Z" transform="translate(-3257.323 -4431)" fill="#7f8f76"/>
  </g>
</svg>
