<svg xmlns="http://www.w3.org/2000/svg" width="12.481" height="21.09" viewBox="0 0 12.481 21.09">
  <g id="Group_1024" data-name="Group 1024" transform="translate(-1199.388 -10.314)">
    <path id="Path_739" data-name="Path 739" d="M1209.717,10.314h-8.177a2.158,2.158,0,0,0-2.152,2.152V29.252a2.158,2.158,0,0,0,2.152,2.152h8.177a2.159,2.159,0,0,0,2.152-2.152V12.466A2.159,2.159,0,0,0,1209.717,10.314Zm-4.089,20.229c-.831,0-1.506-.482-1.506-1.076s.675-1.076,1.506-1.076,1.506.481,1.506,1.076S1206.46,30.543,1205.628,30.543Zm4.519-3.228h-9.038v-14.2h9.038Z" fill="#deddd0"/>
  </g>
</svg>
